<svg width="40" height="40" viewBox="0 0 40 40" fill="none" xmlns="http://www.w3.org/2000/svg">
<g filter="url(#filter0_d_147_3175)">
<path fill-rule="evenodd" clip-rule="evenodd" d="M20.0083 10C14.474 10 10 14.4355 10 19.9227C10 24.309 12.8666 28.0219 16.8434 29.336C17.3406 29.4348 17.5227 29.1225 17.5227 28.8598C17.5227 28.6298 17.5063 27.8413 17.5063 27.0197C14.7222 27.6112 14.1425 25.8368 14.1425 25.8368C13.6951 24.6868 13.0321 24.3913 13.0321 24.3913C12.1209 23.7834 13.0985 23.7834 13.0985 23.7834C14.1093 23.8491 14.6397 24.802 14.6397 24.802C15.5343 26.3132 16.9759 25.8862 17.5559 25.6233C17.6386 24.9826 17.9039 24.5391 18.1856 24.2927C15.9651 24.0626 13.6289 23.2084 13.6289 19.3969C13.6289 18.3127 14.0263 17.4256 14.6561 16.7357C14.5567 16.4893 14.2087 15.4705 14.7556 14.107C14.7556 14.107 15.6007 13.8441 17.5061 15.1256C18.3219 14.9084 19.1632 14.7979 20.0083 14.797C20.8533 14.797 21.7148 14.9121 22.5102 15.1256C24.4159 13.8441 25.2609 14.107 25.2609 14.107C25.8079 15.4705 25.4596 16.4893 25.3603 16.7357C26.0066 17.4256 26.3876 18.3127 26.3876 19.3969C26.3876 23.2084 24.0514 24.0461 21.8143 24.2927C22.179 24.6048 22.4936 25.1961 22.4936 26.1326C22.4936 27.4632 22.4773 28.5312 22.4773 28.8596C22.4773 29.1225 22.6596 29.4348 23.1566 29.3362C27.1333 28.0217 30 24.309 30 19.9227C30.0163 14.4355 25.526 10 20.0083 10Z" fill="#9CA3AF"/>
</g>
<defs>
<filter id="filter0_d_147_3175" x="-2" y="-1" width="44" height="43.3548" filterUnits="userSpaceOnUse" color-interpolation-filters="sRGB">
<feFlood flood-opacity="0" result="BackgroundImageFix"/>
<feColorMatrix in="SourceAlpha" type="matrix" values="0 0 0 0 0 0 0 0 0 0 0 0 0 0 0 0 0 0 127 0" result="hardAlpha"/>
<feOffset dy="1"/>
<feGaussianBlur stdDeviation="1"/>
<feColorMatrix type="matrix" values="0 0 0 0 0.0627451 0 0 0 0 0.0941176 0 0 0 0 0.156863 0 0 0 0.05 0"/>
<feBlend mode="normal" in2="BackgroundImageFix" result="effect1_dropShadow_147_3175"/>
<feBlend mode="normal" in="SourceGraphic" in2="effect1_dropShadow_147_3175" result="shape"/>
</filter>
</defs>
</svg>
