<svg width="30" height="30" viewBox="0 0 30 30" fill="none" xmlns="http://www.w3.org/2000/svg">
<path fill-rule="evenodd" clip-rule="evenodd" d="M15.0124 0.483871C6.71094 0.483871 0 7.13707 0 15.368C0 21.9474 4.29993 27.5167 10.2651 29.4879C11.0109 29.6361 11.284 29.1676 11.284 28.7736C11.284 28.4285 11.2595 27.2458 11.2595 26.0134C7.08337 26.9007 6.21374 24.2391 6.21374 24.2391C5.54261 22.5141 4.54822 22.0708 4.54822 22.0708C3.18139 21.159 4.64778 21.159 4.64778 21.159C6.16396 21.2576 6.95953 22.6868 6.95953 22.6868C8.30148 24.9537 10.4639 24.3132 11.3338 23.9189C11.458 22.9578 11.8559 22.2925 12.2784 21.9229C8.94771 21.5778 5.44336 20.2965 5.44336 14.5793C5.44336 12.9529 6.0395 11.6222 6.98412 10.5874C6.83508 10.2178 6.31299 8.68968 7.13346 6.64443C7.13346 6.64443 8.40104 6.25008 11.2592 8.17225C12.4828 7.84644 13.7448 7.6807 15.0124 7.67931C16.28 7.67931 17.5721 7.85199 18.7654 8.17225C21.6238 6.25008 22.8914 6.64443 22.8914 6.64443C23.7118 8.68968 23.1894 10.2178 23.0404 10.5874C24.0099 11.6222 24.5815 12.9529 24.5815 14.5793C24.5815 20.2965 21.0771 21.553 17.7215 21.9229C18.2685 22.391 18.7405 23.278 18.7405 24.6828C18.7405 26.6787 18.7159 28.2806 18.7159 28.7733C18.7159 29.1676 18.9894 29.6361 19.7349 29.4882C25.7 27.5164 29.9999 21.9474 29.9999 15.368C30.0245 7.13707 23.289 0.483871 15.0124 0.483871Z" fill="#374151"/>
</svg>
