<svg width="32" height="32" viewBox="0 0 32 32" fill="none" xmlns="http://www.w3.org/2000/svg">
<rect width="32" height="32" rx="16" fill="white"/>
<path d="M4.91304 11.1617H27.087C27.5192 11.1617 27.8696 11.5121 27.8696 11.9443V20.0312C27.8696 20.4635 27.5192 20.8139 27.087 20.8139H4.91304C4.48082 20.8139 4.13043 20.4635 4.13043 20.0312V11.9443C4.13043 11.5121 4.48082 11.1617 4.91304 11.1617Z" fill="white"/>
<path d="M4.91304 11.0312H27.087C27.5912 11.0312 28 11.44 28 11.9443V20.0313C28 20.5355 27.5912 20.9443 27.087 20.9443H4.91304C4.40878 20.9443 4 20.5355 4 20.0313V11.9443C4 11.44 4.40878 11.0312 4.91304 11.0312ZM4.91304 11.2921C4.55286 11.2921 4.26087 11.5841 4.26087 11.9443V20.0313C4.26087 20.3914 4.55286 20.6834 4.91304 20.6834H27.087C27.4471 20.6834 27.7391 20.3914 27.7391 20.0313V11.9443C27.7391 11.5841 27.4471 11.2921 27.087 11.2921H4.91304Z" fill="#EAEAEA"/>
<path d="M16.7826 12.9158L16.7825 16.8953L18.2443 15.4338L18.9821 16.1717L16.2802 18.8734L13.5441 16.1374L14.282 15.3995L15.7391 16.8566L15.7391 12.9158H16.7826Z" fill="black"/>
<path d="M7.3826 18.6709V15.589L9.26953 17.4761L11.1708 15.575V18.6398H12.2143V13.0559L9.26959 16.0004L6.33913 13.0697V18.6709H7.3826Z" fill="black"/>
<path d="M24.9928 12.7493L25.7307 13.4871L23.5205 15.6972L25.6627 17.8394L24.9248 18.5772L22.7826 16.4351L20.6404 18.5772L19.9026 17.8394L22.0445 15.6972L19.8346 13.4871L20.5724 12.7493L22.7826 14.9592L24.9928 12.7493Z" fill="#F9AC00"/>
</svg>
