<svg width="33" height="32" viewBox="0 0 33 32" fill="none" xmlns="http://www.w3.org/2000/svg">
<path d="M15.4521 0.00861131C15.3833 0.0148665 15.1643 0.0367597 14.9673 0.0523976C10.4222 0.462113 6.16491 2.91415 3.46852 6.6829C1.96706 8.77839 1.00674 11.1554 0.643891 13.6731C0.51564 14.5519 0.5 14.8115 0.5 16.0031C0.5 17.1947 0.51564 17.4543 0.643891 18.3332C1.51349 24.3413 5.78954 29.3892 11.589 31.2595C12.6275 31.5942 13.7223 31.8225 14.9673 31.9601C15.4521 32.0133 17.5479 32.0133 18.0327 31.9601C20.1817 31.7224 22.0022 31.1907 23.7978 30.2743C24.073 30.1336 24.1262 30.0961 24.0887 30.0648C24.0636 30.046 22.8906 28.4729 21.483 26.5713L18.9242 23.1153L15.718 18.3707C13.9538 15.7623 12.5023 13.6293 12.4898 13.6293C12.4773 13.6262 12.4648 15.7342 12.4586 18.3082C12.4492 22.815 12.446 22.9964 12.3897 23.1028C12.3084 23.256 12.2458 23.3186 12.1145 23.3874C12.0144 23.4374 11.9268 23.4468 11.4544 23.4468H10.9133L10.7694 23.3561C10.6756 23.2967 10.6067 23.2185 10.5598 23.1278L10.4941 22.9871L10.5004 16.7162L10.5098 10.4423L10.6067 10.3203C10.6568 10.2546 10.7631 10.1702 10.8382 10.1295C10.9665 10.067 11.0165 10.0607 11.5577 10.0607C12.1958 10.0607 12.3022 10.0857 12.4679 10.2671C12.5149 10.3172 14.2509 12.9318 16.328 16.0813C18.405 19.2308 21.2453 23.5313 22.6404 25.6424L25.1741 29.4799L25.3023 29.3955C26.4378 28.6574 27.639 27.6065 28.5899 26.5119C30.6138 24.188 31.9182 21.3544 32.3561 18.3332C32.4844 17.4543 32.5 17.1947 32.5 16.0031C32.5 14.8115 32.4844 14.5519 32.3561 13.6731C31.4865 7.66496 27.2105 2.61703 21.411 0.746724C20.3882 0.415199 19.2996 0.186884 18.0797 0.0492701C17.7794 0.0179941 15.7117 -0.0164094 15.4521 0.00861131ZM22.0022 9.68539C22.1524 9.76045 22.2744 9.90432 22.3182 10.0544C22.3432 10.1358 22.3495 11.8747 22.3432 15.7936L22.3338 21.417L21.3422 19.897L20.3475 18.377V14.2892C20.3475 11.6464 20.36 10.1608 20.3788 10.0889C20.4288 9.9137 20.5383 9.77609 20.6885 9.69477C20.8167 9.62909 20.8636 9.62284 21.3547 9.62284C21.8177 9.62284 21.899 9.62909 22.0022 9.68539Z" fill="black"/>
</svg>
