<svg width="32" height="32" viewBox="0 0 32 32" fill="none" xmlns="http://www.w3.org/2000/svg">
<rect width="32" height="32" rx="16" fill="white"/>
<path d="M23.7328 12.2335C23.4838 12.1478 23.2259 12.0667 22.9602 11.99C23.0039 11.8118 23.044 11.6359 23.0796 11.4631C23.6644 8.62421 23.282 6.33721 21.9763 5.58423C20.7243 4.86223 18.6767 5.61503 16.6087 7.41473C16.4099 7.58779 16.2104 7.77101 16.0111 7.96304C15.8783 7.83599 15.7457 7.71321 15.6134 7.59578C13.4461 5.67142 11.2738 4.86048 9.96931 5.61563C8.71847 6.33973 8.34805 8.48973 8.87449 11.1801C8.92532 11.44 8.98475 11.7054 9.05194 11.9752C8.74449 12.0625 8.44767 12.1555 8.16367 12.2545C5.62275 13.1404 4 14.5288 4 15.9689C4 17.4562 5.74202 18.9481 8.38859 19.8527C8.59745 19.9241 8.81417 19.9916 9.0375 20.0557C8.96501 20.3475 8.90195 20.6334 8.84903 20.9124C8.34707 23.5561 8.73906 25.6553 9.98656 26.3748C11.2751 27.1179 13.4377 26.3541 15.5435 24.5134C15.7099 24.3679 15.8769 24.2136 16.0443 24.0518C16.2611 24.2607 16.4777 24.4583 16.6931 24.6437C18.7328 26.399 20.7473 27.1077 21.9937 26.3862C23.2809 25.641 23.6993 23.3859 23.1561 20.6423C23.1147 20.4328 23.0664 20.2187 23.0122 20.0008C23.164 19.9559 23.3131 19.9096 23.4585 19.8614C26.2099 18.9498 28 17.4761 28 15.9689C28 14.5235 26.3249 13.1258 23.7328 12.2335ZM23.1361 18.8882C23.0048 18.9317 22.8702 18.9736 22.733 19.0144C22.4292 18.0528 22.0193 17.0303 21.5176 15.9739C21.9963 14.9426 22.3904 13.9332 22.6857 12.9779C22.9312 13.0489 23.1695 13.1238 23.3991 13.2029C25.62 13.9675 26.9747 15.0979 26.9747 15.9689C26.9747 16.8967 25.5117 18.1011 23.1361 18.8882ZM22.1504 20.8414C22.3905 22.0546 22.4248 23.1515 22.2657 24.009C22.1228 24.7795 21.8353 25.2932 21.4799 25.4989C20.7236 25.9367 19.1061 25.3676 17.3617 23.8665C17.1618 23.6945 16.9603 23.5107 16.7583 23.3163C17.4345 22.5767 18.1104 21.7168 18.77 20.7619C19.9303 20.659 21.0264 20.4907 22.0204 20.2609C22.0694 20.4584 22.1129 20.6521 22.1504 20.8414ZM12.1821 25.4233C11.4432 25.6842 10.8546 25.6917 10.4989 25.4866C9.74182 25.0499 9.42711 23.3645 9.8564 21.1036C9.90557 20.8446 9.96409 20.5787 10.0315 20.3068C11.0147 20.5242 12.1028 20.6806 13.2658 20.7749C13.9299 21.7093 14.6253 22.5682 15.3261 23.3202C15.1729 23.4681 15.0204 23.6088 14.8688 23.7414C13.9376 24.5553 13.0045 25.1328 12.1821 25.4233ZM8.72018 18.8825C7.54992 18.4825 6.58347 17.9627 5.92102 17.3954C5.32576 16.8856 5.02523 16.3795 5.02523 15.9689C5.02523 15.095 6.32814 13.9803 8.50116 13.2226C8.76482 13.1307 9.04084 13.0441 9.32727 12.9627C9.62759 13.9396 10.0216 14.961 10.497 15.9938C10.0154 17.042 9.61584 18.0797 9.31258 19.068C9.10838 19.0093 8.91054 18.9475 8.72018 18.8825ZM9.88066 10.9832C9.42963 8.67816 9.72918 6.9393 10.483 6.50296C11.2859 6.03813 13.0614 6.70088 14.9326 8.36247C15.0523 8.46867 15.1723 8.57982 15.2928 8.69482C14.5955 9.44357 13.9064 10.296 13.2483 11.2249C12.1195 11.3295 11.039 11.4976 10.0456 11.7226C9.98319 11.4714 9.92787 11.2246 9.88066 10.9832ZM20.2332 13.5395C19.9957 13.1293 19.7519 12.7288 19.5034 12.3393C20.2691 12.4361 21.0028 12.5646 21.6918 12.7218C21.4849 13.3848 21.2271 14.0779 20.9236 14.7884C20.7059 14.3751 20.4757 13.9584 20.2332 13.5395ZM16.0114 9.42755C16.4844 9.93989 16.9579 10.5119 17.4238 11.1325C16.9544 11.1104 16.4791 11.0988 16 11.0988C15.5254 11.0988 15.0537 11.1101 14.5872 11.1319C15.0535 10.517 15.5312 9.94578 16.0114 9.42755ZM11.7627 13.5466C11.5255 13.958 11.2995 14.3724 11.0852 14.7877C10.7866 14.0796 10.5312 13.3833 10.3226 12.711C11.0073 12.5578 11.7375 12.4325 12.4984 12.3375C12.2464 12.7306 12.0005 13.1341 11.7627 13.5465V13.5466ZM12.5203 19.6734C11.7342 19.5857 10.993 19.4668 10.3084 19.3178C10.5204 18.6335 10.7814 17.9224 11.0863 17.199C11.3012 17.614 11.5281 18.0286 11.7667 18.4408H11.7668C12.0099 18.8608 12.2618 19.2722 12.5203 19.6734ZM16.0398 22.5825C15.5539 22.0582 15.0692 21.4782 14.5958 20.8544C15.0553 20.8724 15.5238 20.8816 16 20.8816C16.4892 20.8816 16.9728 20.8706 17.4488 20.8494C16.9814 21.4845 16.5095 22.0654 16.0398 22.5825ZM20.9334 17.1622C21.2542 17.8933 21.5246 18.6007 21.7393 19.2734C21.0434 19.4322 20.2921 19.56 19.5005 19.655C19.7497 19.2602 19.9956 18.8528 20.2373 18.4338C20.4818 18.0098 20.7139 17.5853 20.9334 17.1622ZM19.3492 17.9216C18.974 18.5721 18.5889 19.1931 18.1978 19.7792C17.4857 19.8301 16.7499 19.8564 16 19.8564C15.2531 19.8564 14.5266 19.8332 13.8271 19.7878C13.4203 19.1939 13.0268 18.5711 12.654 17.9272H12.6541C12.2823 17.285 11.9401 16.6374 11.63 15.9935C11.94 15.348 12.2813 14.6997 12.6509 14.0587L12.6509 14.0588C13.0215 13.4161 13.4116 12.7963 13.8146 12.2062C14.5284 12.1523 15.2603 12.1241 16 12.1241H16C16.743 12.1241 17.4759 12.1525 18.1894 12.2069C18.5863 12.7927 18.9737 13.4105 19.3458 14.0533C19.7221 14.7033 20.0678 15.3473 20.3804 15.9789C20.0688 16.6214 19.7238 17.2719 19.3492 17.9216ZM21.4642 6.47246C22.2679 6.93593 22.5804 8.80508 22.0755 11.2561C22.0433 11.4125 22.007 11.5718 21.9676 11.7333C20.9719 11.5035 19.8907 11.3326 18.7586 11.2263C18.0992 10.2872 17.4158 9.43349 16.7298 8.69435C16.9142 8.51694 17.0984 8.34777 17.2818 8.18813C19.0536 6.64616 20.7097 6.03736 21.4642 6.47246ZM16 13.8258C17.1836 13.8258 18.1431 14.7852 18.1431 15.9689C18.1431 17.1525 17.1836 18.112 16 18.112C14.8164 18.112 13.8569 17.1525 13.8569 15.9689C13.8569 14.7852 14.8164 13.8258 16 13.8258Z" fill="#00D8FF"/>
</svg>
