<svg width="32" height="32" viewBox="0 0 32 32" fill="none" xmlns="http://www.w3.org/2000/svg">
<rect width="32" height="32" rx="16" fill="white"/>
<path d="M16 8.78125C12.8 8.78125 10.8 10.3813 10 13.5813C11.2 11.9813 12.6 11.3813 14.2 11.7813C15.1129 12.0095 15.7654 12.6717 16.4876 13.4049C17.6641 14.5991 19.0258 15.9813 22 15.9813C25.2 15.9813 27.2 14.3813 28 11.1813C26.8 12.7813 25.4 13.3813 23.8 12.9813C22.8871 12.753 22.2346 12.0908 21.5124 11.3577C20.3359 10.1634 18.9742 8.78125 16 8.78125ZM10 15.9813C6.8 15.9813 4.8 17.5813 4 20.7813C5.2 19.1813 6.6 18.5813 8.2 18.9813C9.11289 19.2095 9.76538 19.8717 10.4876 20.6049C11.6641 21.7991 13.0258 23.1813 16 23.1813C19.2 23.1813 21.2 21.5813 22 18.3813C20.8 19.9813 19.4 20.5813 17.8 20.1813C16.8871 19.953 16.2346 19.2908 15.5124 18.5577C14.3359 17.3634 12.9742 15.9813 10 15.9813Z" fill="url(#paint0_linear_145_2270)"/>
<defs>
<linearGradient id="paint0_linear_145_2270" x1="3.33333" y1="13.3893" x2="24.0613" y2="25.3405" gradientUnits="userSpaceOnUse">
<stop stop-color="#2298BD"/>
<stop offset="1" stop-color="#0ED7B5"/>
</linearGradient>
</defs>
</svg>
