<svg width="375" height="211" viewBox="0 0 375 211" fill="none" xmlns="http://www.w3.org/2000/svg">
<rect width="375" height="211" fill="#F1606D"/>
<path d="M255.536 142.788V136.745C255.536 130.935 250.833 126.232 245.023 126.232H190.545V121.913C189.629 122.256 188.673 122.411 187.677 122.411C186.684 122.411 185.728 122.256 184.812 121.913V126.232H130.334C124.52 126.232 119.821 130.935 119.821 136.745V142.788L103.571 152.497L122.686 163.966L141.803 152.497L125.554 142.788V136.745C125.554 134.109 127.695 131.968 130.334 131.968H184.812V142.788L168.562 152.497L187.677 163.966L206.794 152.497L190.545 142.788V131.968H245.023C247.662 131.968 249.803 134.109 249.803 136.745V142.788L233.554 152.497L252.668 163.966L271.785 152.497L255.536 142.788Z" fill="white"/>
<mask id="mask0_172_2107" style="mask-type:luminance" maskUnits="userSpaceOnUse" x="125" y="157" width="20" height="35">
<path d="M125.216 157.342H145V191.799H125.216V157.342Z" fill="white"/>
</mask>
<g mask="url(#mask0_172_2107)">
<path d="M125.554 191.893L143.277 181.257C144.141 180.742 144.668 179.808 144.668 178.801V157.48L125.554 168.955V191.893Z" fill="white"/>
</g>
<mask id="mask1_172_2107" style="mask-type:luminance" maskUnits="userSpaceOnUse" x="165" y="157" width="21" height="35">
<path d="M165.517 157.342H185.301V191.799H165.517V157.342Z" fill="white"/>
</mask>
<g mask="url(#mask1_172_2107)">
<path d="M165.694 178.801C165.694 179.808 166.224 180.742 167.088 181.257L184.812 191.893V168.955L165.694 157.48V178.801Z" fill="white"/>
</g>
<mask id="mask2_172_2107" style="mask-type:luminance" maskUnits="userSpaceOnUse" x="100" y="157" width="21" height="35">
<path d="M100.303 157.342H120.087V191.799H100.303V157.342Z" fill="white"/>
</mask>
<g mask="url(#mask2_172_2107)">
<path d="M100.703 178.801C100.703 179.808 101.233 180.742 102.097 181.257L119.82 191.893V168.955L100.703 157.48V178.801Z" fill="white"/>
</g>
<mask id="mask3_172_2107" style="mask-type:luminance" maskUnits="userSpaceOnUse" x="254" y="157" width="21" height="35">
<path d="M254.912 157.342H274.696V191.799H254.912V157.342Z" fill="white"/>
</mask>
<g mask="url(#mask3_172_2107)">
<path d="M255.536 168.952V191.893L273.259 181.257C274.121 180.742 274.651 179.809 274.651 178.801V157.477L255.536 168.952Z" fill="white"/>
</g>
<mask id="mask4_172_2107" style="mask-type:luminance" maskUnits="userSpaceOnUse" x="190" y="157" width="21" height="35">
<path d="M190.43 157.342H210.214V191.799H190.43V157.342Z" fill="white"/>
</mask>
<g mask="url(#mask4_172_2107)">
<path d="M190.545 191.893L208.268 181.257C209.13 180.742 209.659 179.808 209.659 178.801V157.48L190.545 168.955V191.893Z" fill="white"/>
</g>
<mask id="mask5_172_2107" style="mask-type:luminance" maskUnits="userSpaceOnUse" x="229" y="157" width="22" height="35">
<path d="M229.999 157.342H250.516V191.799H229.999V157.342Z" fill="white"/>
</mask>
<g mask="url(#mask5_172_2107)">
<path d="M230.686 178.801C230.686 179.809 231.218 180.742 232.079 181.257L249.803 191.893V168.952L230.686 157.477V178.801Z" fill="white"/>
</g>
<path d="M206.789 76.0533L189.154 65.4742C188.247 64.9275 187.11 64.9275 186.203 65.4742L168.568 76.0533L187.677 87.5253L206.789 76.0533Z" fill="white"/>
<path d="M209.658 102.341V81.0165L190.544 92.4943V115.43L208.267 104.796C209.129 104.281 209.658 103.348 209.658 102.341Z" fill="white"/>
<path d="M165.695 102.341C165.695 103.348 166.225 104.281 167.089 104.796L184.813 115.43V92.4943L165.695 81.0194V102.341Z" fill="white"/>
<path d="M145.624 97.5605H159.961V79.4022C159.961 76.3796 161.567 73.5516 164.129 72.0232L183.243 60.554C185.945 58.9339 189.409 58.9311 192.113 60.554L211.228 72.0232C213.79 73.5516 215.395 76.3796 215.395 79.4022V97.5605H229.733C236.765 97.5605 243.457 94.0428 247.585 88.1551C251.752 82.2301 252.785 74.6994 250.413 68.0847C247.049 58.871 238.105 53.2122 228.736 53.633C229.083 45.567 224.953 37.7301 217.803 33.5998C211.42 29.9303 203.812 29.7014 197.311 32.7984C189.629 20.8311 174.144 15.8622 160.803 21.5581C147.994 26.9879 140.884 40.3691 143.177 53.7475C133.276 54.858 125.096 62.6549 123.834 72.8647C123.069 78.9814 125.019 85.2126 129.263 90.0299C133.505 94.807 139.47 97.5605 145.624 97.5605Z" fill="white"/>
</svg>
