<svg width="375" height="211" viewBox="0 0 375 211" fill="none" xmlns="http://www.w3.org/2000/svg">
<rect width="375" height="211" fill="#00ADEF"/>
<mask id="mask0_152_3233" style="mask-type:luminance" maskUnits="userSpaceOnUse" x="119" y="37" width="137" height="137">
<path d="M119.784 37.3982H255.216V173.602H119.784V37.3982Z" fill="white"/>
</mask>
<g mask="url(#mask0_152_3233)">
<path d="M141.786 129.397C138.426 124.16 136.47 117.877 136.47 111.12C136.47 92.8527 150.771 78.0439 168.412 78.0439C175.801 78.0439 182.603 80.6397 188.015 85.0011L203.387 70.2382C202.988 68.3565 202.785 66.4877 202.785 64.6661C202.786 49.637 215.002 37.4097 230.018 37.4097C240.811 37.4097 250.593 43.8102 254.944 53.7123C255.18 54.2446 255.13 54.8614 254.811 55.3493C254.492 55.8358 253.95 56.1306 253.367 56.1306H224.569V73.2002H253.369C253.95 73.2002 254.492 73.495 254.811 73.9815C255.13 74.4709 255.18 75.0862 254.944 75.6185C250.593 85.522 240.811 91.9183 230.018 91.9183C227.573 91.9183 225.141 91.5877 222.771 90.9324L200.195 114.456C198.692 129.991 186.808 142.359 171.832 144.009L148.858 167.947C145.741 171.573 141.208 173.65 136.428 173.65C132.052 173.65 127.935 171.945 124.838 168.847C121.626 165.627 119.878 161.176 120.048 156.629C120.22 152.085 122.293 147.776 125.738 144.809L141.786 129.397ZM168.531 141.424C184.567 141.424 197.569 127.962 197.569 111.355C197.569 94.7487 184.567 81.2864 168.531 81.2864C152.492 81.2864 139.491 94.7487 139.491 111.355C139.491 127.962 152.492 141.424 168.531 141.424ZM159.617 99.2604L150.498 110.662L159.617 122.693H153.599L144.48 110.725L153.599 99.2604H159.617ZM174.968 99.2604L167.977 122.693H162.87L169.862 99.2604H174.968ZM177.703 122.693L186.822 111.293L177.703 99.2604H183.722L192.842 111.229L183.722 122.693H177.703Z" fill="white"/>
</g>
</svg>
