<svg width="1920" height="1080" viewBox="0 0 1920 1080" fill="none" xmlns="http://www.w3.org/2000/svg">
<rect width="1920" height="1080" fill="url(#paint0_linear_152_3229)"/>
<path d="M1105.66 451.13H1259.63V479.497H1198.55V628.734H1168.01V479.497H1105.66V451.13ZM852.421 451.13V479.497H728.997V525.131H828.255V553.498H728.997V600.366H852.421V628.736H698.457V479.497H698.443V451.13H852.421ZM929.307 451.203H889.338L1032.5 628.808H1072.58L1000.99 540.066L1072.47 451.338L1032.5 451.4L980.983 515.262L929.307 451.203ZM970.321 578.068L950.305 553.227L889.224 628.944H929.307L970.321 578.068Z" fill="white"/>
<path fill-rule="evenodd" clip-rule="evenodd" d="M699.527 628.734L556.176 451.056H518V628.66H548.541V489.019L661.161 628.734H699.527Z" fill="white"/>
<path d="M1266.5 627.65C1265.44 627.667 1264.38 627.471 1263.4 627.072C1262.41 626.673 1261.52 626.081 1260.77 625.33C1259.17 623.782 1258.39 621.91 1258.41 619.691C1258.39 617.534 1259.17 615.682 1260.77 614.135C1261.52 613.384 1262.41 612.791 1263.4 612.393C1264.38 611.994 1265.44 611.797 1266.5 611.815C1268.65 611.815 1270.53 612.587 1272.13 614.135C1273.74 615.68 1274.55 617.534 1274.57 619.691C1274.57 621.106 1274.17 622.493 1273.43 623.699C1272.7 624.891 1271.68 625.879 1270.47 626.57C1269.27 627.286 1267.9 627.66 1266.5 627.65ZM1318.63 552.829H1332.16V604.874C1332.14 609.656 1331.1 613.747 1329.08 617.187C1327.03 620.627 1324.19 623.252 1320.55 625.104C1316.93 626.936 1312.69 627.874 1307.86 627.874C1303.46 627.874 1299.5 627.079 1295.99 625.531C1292.47 623.986 1289.68 621.666 1287.63 618.611C1285.56 615.559 1284.54 611.752 1284.54 607.194H1298.1C1298.12 609.188 1298.57 610.919 1299.44 612.363C1300.3 613.792 1301.55 614.944 1303.04 615.68C1304.59 616.455 1306.37 616.842 1308.38 616.842C1310.55 616.842 1312.42 616.394 1313.93 615.476C1315.44 614.58 1316.6 613.237 1317.4 611.447C1318.19 609.678 1318.61 607.479 1318.63 604.874V552.829ZM1387.84 573.183C1387.51 570.028 1386.07 567.565 1383.54 565.816C1380.99 564.046 1377.71 563.169 1373.67 563.169C1370.84 563.169 1368.39 563.596 1366.37 564.432C1364.34 565.287 1362.76 566.425 1361.69 567.871C1360.61 569.316 1360.07 570.964 1360.03 572.816C1360.03 574.364 1360.4 575.705 1361.13 576.825C1361.85 577.967 1362.83 578.923 1364.09 579.696C1365.39 580.513 1366.78 581.175 1368.23 581.671C1369.76 582.2 1371.29 582.648 1372.82 583.015L1379.88 584.744C1382.69 585.382 1385.44 586.268 1388.09 587.391C1390.65 588.445 1393.04 589.856 1395.19 591.583C1397.26 593.245 1398.95 595.326 1400.16 597.688C1401.38 600.071 1402 602.859 1402 606.075C1402 610.41 1400.88 614.215 1398.63 617.514C1396.37 620.79 1393.12 623.355 1388.86 625.207C1384.62 627.039 1379.48 627.975 1373.44 627.975C1367.61 627.975 1362.52 627.079 1358.23 625.287C1353.93 623.518 1350.58 620.911 1348.15 617.494C1345.73 614.074 1344.43 609.902 1344.24 604.998H1357.65C1357.84 607.56 1358.67 609.698 1360.07 611.427C1361.5 613.136 1363.36 614.399 1365.64 615.254C1367.94 616.087 1370.5 616.515 1373.34 616.515C1376.3 616.515 1378.91 616.067 1381.16 615.194C1383.4 614.318 1385.15 613.096 1386.42 611.508C1387.7 609.94 1388.34 608.09 1388.36 605.972C1388.34 604.039 1387.76 602.431 1386.64 601.168C1385.51 599.907 1383.93 598.848 1381.93 597.995C1379.63 597.048 1377.26 596.279 1374.85 595.695L1366.28 593.536C1360.09 591.968 1355.19 589.588 1351.61 586.392C1348.01 583.196 1346.23 578.964 1346.23 573.649C1346.23 569.296 1347.43 565.468 1349.85 562.192C1352.25 558.916 1355.54 556.369 1359.7 554.56C1363.88 552.728 1368.6 551.832 1373.86 551.832C1379.2 551.832 1383.87 552.728 1387.91 554.56C1391.94 556.372 1395.11 558.896 1397.4 562.111C1399.7 565.327 1400.9 569.009 1400.97 573.183H1387.84Z" fill="white"/>
<defs>
<linearGradient id="paint0_linear_152_3229" x1="384" y1="260.135" x2="1063.07" y2="1831.59" gradientUnits="userSpaceOnUse">
<stop stop-color="#FE315D"/>
<stop offset="0.04" stop-color="#F63462"/>
<stop offset="0.1" stop-color="#DF3A71"/>
<stop offset="0.17" stop-color="#C24383"/>
<stop offset="0.29" stop-color="#AD4A91"/>
<stop offset="0.55" stop-color="#755BB4"/>
<stop offset="0.92" stop-color="#1D76ED"/>
<stop offset="1" stop-color="#087CFA"/>
</linearGradient>
</defs>
</svg>
