<svg width="375" height="211" viewBox="0 0 375 211" fill="none" xmlns="http://www.w3.org/2000/svg">
<rect width="375" height="211" fill="url(#paint0_radial_152_3272)"/>
<rect width="375" height="211" fill="url(#paint1_angular_152_3272)"/>
<rect width="375" height="211" fill="url(#paint2_radial_152_3272)"/>
<g clip-path="url(#clip0_152_3272)">
<path fill-rule="evenodd" clip-rule="evenodd" d="M131.467 125.761C122.106 125.761 117.503 120.059 115.708 114.102C117.735 123.772 128.686 133.238 163.235 137.46C195.877 141.449 217.148 131.447 224.325 126.793C224.325 126.793 229.174 124.66 226.265 127.957C226.265 127.957 205.707 146.962 165.368 147.156C125.03 147.35 93.0304 126.988 93.2235 106.43C93.0304 85.8732 125.03 65.5099 165.368 65.704C205.707 65.8982 226.265 84.9035 226.265 84.9035C229.174 88.2008 224.325 86.0673 224.325 86.0673C217.149 81.4131 195.969 72.2463 163.235 75.4008C131.042 78.504 120.533 89.4417 117.042 96.8119C115.699 99.648 115.093 102.322 114.94 105.016C115.81 97.985 120.18 89.6934 131.467 89.6934C144.253 89.6934 148.166 100.332 148.166 107.728C148.165 115.121 144.253 125.761 131.467 125.761ZM261.44 118.652H278.471V124.856H254.283V90.5994H261.44V118.652ZM235.16 106.392H249.473V124.856H244.701L243.988 120.56C242.173 122.66 239.55 125.76 233.3 125.76C225.047 125.76 217.558 119.845 217.558 107.821C217.558 98.4708 222.757 89.6441 234.302 89.6923C244.799 89.6923 248.95 96.515 249.331 101.237H242.174C242.174 99.9017 239.741 95.608 234.685 95.608C229.579 95.608 224.857 99.1395 224.857 107.918C224.857 117.27 229.961 119.701 234.828 119.701C236.403 119.701 241.65 119.081 243.128 112.163H235.161V106.392H235.16ZM131.467 93.796C124.025 93.796 119.541 99.6644 119.541 107.728C119.541 115.79 124.025 121.658 131.467 121.658C138.911 121.658 143.394 115.79 143.394 107.728C143.394 99.6644 138.91 93.796 131.467 93.796ZM150.732 102.948H154.209V106.049H154.293C155.172 104.791 156.848 102.321 160.827 102.321C166.648 102.321 170.798 107.254 170.798 113.412C170.798 118.648 167.78 125.483 160.325 125.483C157.393 125.483 155.466 124.101 154.504 122.551H154.419V133.525H150.733L150.732 102.948ZM160.046 122.299C164.068 122.299 166.792 118.814 166.792 113.997C166.792 111.193 165.658 105.629 159.962 105.629C154.642 105.629 154.056 111.367 154.056 114.929C154.057 120.751 157.701 122.299 160.046 122.299ZM193.103 117.986C192.979 119.033 191.973 122.133 189.209 123.974C188.203 124.644 186.778 125.483 183.26 125.483C177.103 125.483 173.459 120.833 173.459 114.509C173.459 107.724 176.726 102.32 183.972 102.32C190.298 102.32 193.395 107.346 193.395 115.094H177.397C177.397 119.66 179.533 122.299 183.763 122.299C187.24 122.299 189.291 119.619 189.417 117.986H193.103ZM189.196 112.163C188.988 108.771 187.563 105.629 183.081 105.629C179.689 105.629 177.008 108.772 177.008 112.163H189.196ZM213.767 124.856H210.082V111.367C210.082 107.555 208.992 105.629 205.391 105.629C203.297 105.629 199.611 106.97 199.611 112.916V124.856H195.924V102.948H199.401V106.049H199.485C200.281 104.875 202.333 102.321 206.101 102.321C209.494 102.321 213.767 103.702 213.767 109.943V124.856Z" fill="#E6E6E7"/>
<path fill-rule="evenodd" clip-rule="evenodd" d="M280.566 120.002V120.311H279.596V122.993H279.21V120.311H278.231V120.002H280.566ZM281.478 120.002L282.225 122.391H282.24L283.016 120.002H283.59V122.993H283.251V120.311H283.235L282.355 122.993H282.098L281.269 120.311H281.252V122.993H280.913V120.002H281.478Z" fill="#5487B2"/>
<path fill-rule="evenodd" clip-rule="evenodd" d="M131.38 125.672C122.018 125.672 117.416 119.97 115.621 114.013C117.648 123.684 128.599 133.149 163.149 137.37C195.791 141.361 217.062 131.359 224.238 126.705C224.238 126.705 229.087 124.57 226.178 127.868C226.178 127.868 205.62 146.874 165.282 147.068C124.943 147.261 92.9444 126.899 93.1386 106.341C92.9434 85.7849 124.943 65.4215 165.281 65.6146C205.62 65.8088 226.177 84.8141 226.177 84.8141C229.086 88.1115 224.237 85.978 224.237 85.978C217.061 81.3237 195.881 72.1569 163.148 75.3115C130.955 78.4146 120.446 89.3534 116.955 96.7225C115.612 99.5586 115.006 102.232 114.853 104.927C115.723 97.8956 120.093 89.604 131.38 89.604C144.166 89.604 148.078 100.244 148.078 107.638C148.078 115.032 144.166 125.672 131.38 125.672ZM261.353 118.564H278.384V124.765H254.196V90.511H261.353V118.564ZM235.073 106.301H249.386V124.765H244.614C244.376 123.334 244.137 121.902 243.9 120.472C242.086 122.57 239.463 125.671 233.213 125.671C224.96 125.671 217.468 119.755 217.468 107.733C217.468 98.3815 222.668 89.5557 234.215 89.604C244.712 89.604 248.863 96.4267 249.244 101.15H242.087C242.087 99.8134 239.654 95.5207 234.596 95.5207C229.492 95.5207 224.77 99.0512 224.77 107.829C224.77 117.18 229.874 119.614 234.741 119.614C236.316 119.614 241.563 118.993 243.041 112.076H235.074L235.073 106.301ZM131.38 93.7067C123.937 93.7067 119.454 99.5751 119.454 107.638C119.454 115.701 123.938 121.569 131.38 121.569C138.823 121.569 143.307 115.7 143.307 107.638C143.307 99.5751 138.823 93.7067 131.38 93.7067ZM150.646 102.86H154.122V105.959H154.206C155.085 104.703 156.761 102.232 160.74 102.232C166.561 102.232 170.711 107.167 170.711 113.324C170.711 118.561 167.693 125.394 160.238 125.394C157.306 125.394 155.379 124.011 154.415 122.462H154.331V133.437H150.646V102.86ZM159.959 122.211C163.981 122.211 166.706 118.725 166.706 113.909C166.706 111.102 165.572 105.541 159.876 105.541C154.556 105.541 153.971 111.279 153.971 114.838C153.971 120.661 157.614 122.211 159.959 122.211ZM193.016 117.895C192.892 118.943 191.886 122.042 189.122 123.886C188.116 124.556 186.692 125.393 183.174 125.393C177.017 125.393 173.373 120.745 173.373 114.42C173.373 107.634 176.64 102.23 183.886 102.23C190.209 102.23 193.309 107.258 193.309 115.006H177.31C177.31 119.57 179.445 122.211 183.676 122.211C187.153 122.211 189.204 119.531 189.33 117.895H193.016ZM189.109 112.073C188.901 108.68 187.477 105.541 182.995 105.541C179.603 105.541 176.922 108.681 176.922 112.073H189.109ZM213.68 124.765H209.994V111.279C209.994 107.467 208.905 105.541 205.302 105.541C203.21 105.541 199.522 106.882 199.522 112.828V124.765H195.837V102.86H199.314V105.959H199.398C200.194 104.787 202.246 102.232 206.014 102.232C209.407 102.232 213.68 103.615 213.68 109.855V124.765Z" fill="#DFE0E1"/>
<path fill-rule="evenodd" clip-rule="evenodd" d="M131.295 125.584C121.934 125.584 117.33 119.882 115.535 113.925C117.562 123.593 128.513 133.061 163.063 137.282C195.705 141.272 216.976 131.27 224.152 126.616C224.152 126.616 229.001 124.482 226.092 127.78C226.092 127.78 205.534 146.785 165.195 146.977C124.857 147.172 92.8575 126.81 93.0517 106.253C92.8575 85.6965 124.857 65.3332 165.195 65.5263C205.534 65.7204 226.092 84.7258 226.092 84.7258C229.001 88.0221 224.152 85.8896 224.152 85.8896C216.976 81.2353 195.796 72.0675 163.063 75.2231C130.869 78.3263 120.361 89.264 116.87 96.6331C115.527 99.4692 114.92 102.143 114.768 104.837C115.638 97.8072 120.008 89.5156 131.295 89.5156C144.08 89.5156 147.993 100.154 147.993 107.549C147.993 114.944 144.08 125.584 131.295 125.584ZM261.267 118.476H278.298V124.677H254.11V90.4226H261.267V118.476ZM234.987 106.213H249.3V124.677H244.529L243.813 120.383C242.001 122.482 239.377 125.583 233.128 125.583C224.874 125.583 217.385 119.666 217.385 107.645C217.385 98.2931 222.583 89.4673 234.129 89.5156C244.626 89.5156 248.777 96.3383 249.158 101.061H242.002C242.002 99.725 239.568 95.4323 234.51 95.4323C229.406 95.4323 224.684 98.9628 224.684 107.74C224.684 117.092 229.788 119.525 234.655 119.525C236.23 119.525 241.477 118.905 242.955 111.988C240.301 111.986 237.644 111.986 234.988 111.988L234.987 106.213ZM131.295 93.6193C123.852 93.6193 119.368 99.4877 119.368 107.55C119.368 115.614 123.852 121.481 131.295 121.481C138.738 121.481 143.221 115.613 143.221 107.55C143.221 99.4867 138.738 93.6193 131.295 93.6193ZM150.561 102.772H154.037V105.871H154.121C155 104.615 156.676 102.144 160.655 102.144C166.476 102.144 170.627 107.079 170.627 113.236C170.627 118.47 167.608 125.306 160.153 125.306C157.221 125.306 155.295 123.923 154.332 122.374H154.247V133.349C153.019 133.346 151.79 133.346 150.562 133.349L150.561 102.772ZM159.873 122.123C163.895 122.123 166.62 118.638 166.62 113.821C166.62 111.015 165.486 105.453 159.79 105.453C154.471 105.453 153.884 111.192 153.884 114.751C153.884 120.572 157.528 122.123 159.873 122.123ZM192.93 117.807C192.806 118.855 191.8 121.954 189.036 123.798C188.03 124.467 186.606 125.304 183.087 125.304C176.93 125.304 173.287 120.656 173.287 114.332C173.287 107.545 176.553 102.142 183.799 102.142C190.125 102.142 193.222 107.169 193.222 114.917H177.223C177.223 119.481 179.358 122.122 183.59 122.122C187.066 122.122 189.117 119.44 189.243 117.807H192.93ZM189.023 111.985C188.815 108.592 187.391 105.452 182.91 105.452C179.517 105.452 176.836 108.593 176.836 111.985H189.023ZM213.594 124.677H209.909V111.191C209.909 107.379 208.819 105.452 205.218 105.452C203.124 105.452 199.436 106.793 199.436 112.74V124.677H195.751V102.772H199.228V105.871H199.312C200.108 104.699 202.158 102.144 205.928 102.144C209.321 102.144 213.594 103.527 213.594 109.767V124.677Z" fill="#D9DADB"/>
<path fill-rule="evenodd" clip-rule="evenodd" d="M131.209 125.496C121.848 125.496 117.245 119.794 115.449 113.835C117.477 123.505 128.427 132.971 162.977 137.193C195.619 141.182 216.89 131.18 224.066 126.526C224.066 126.526 228.915 124.393 226.006 127.692C226.006 127.692 205.448 146.697 165.109 146.889C124.771 147.083 92.7716 126.72 92.9657 106.165C92.7716 85.6072 124.771 65.2439 165.109 65.438C205.448 65.6322 226.006 84.6375 226.006 84.6375C228.915 87.9348 224.066 85.8013 224.066 85.8013C216.89 81.1471 195.71 71.9803 162.977 75.1348C130.783 78.238 120.275 89.1757 116.785 96.5449C115.441 99.381 114.834 102.055 114.682 104.749C115.552 97.718 119.922 89.4264 131.209 89.4264C143.994 89.4264 147.907 100.065 147.907 107.46C147.907 114.856 143.994 125.496 131.209 125.496ZM261.181 118.387C266.858 118.385 272.535 118.385 278.212 118.387V124.589H254.024V90.3334H261.181V118.387ZM234.901 106.125H249.214V124.589H244.443C244.204 123.156 243.965 121.726 243.729 120.295C241.915 122.393 239.291 125.495 233.042 125.495C224.788 125.495 217.299 119.578 217.299 107.554C217.299 98.2048 222.498 89.3781 234.043 89.4264C244.54 89.4264 248.691 96.249 249.072 100.972H241.916C241.916 99.6357 239.482 95.342 234.424 95.342C229.32 95.342 224.598 98.8736 224.598 107.651C224.598 117.003 229.702 119.436 234.569 119.436C236.142 119.436 241.391 118.816 242.869 111.896H234.902L234.901 106.125ZM131.209 93.53C123.766 93.53 119.282 99.3985 119.282 107.461C119.282 115.525 123.766 121.392 131.209 121.392C138.652 121.392 143.135 115.524 143.135 107.461C143.135 99.3985 138.651 93.53 131.209 93.53ZM150.474 102.682H153.951V105.782H154.035C154.914 104.525 156.59 102.054 160.568 102.054C166.39 102.054 170.54 106.99 170.54 113.147C170.54 118.381 167.522 125.216 160.066 125.216C157.134 125.216 155.208 123.834 154.245 122.285H154.16V133.257H150.475L150.474 102.682ZM159.787 122.033C163.809 122.033 166.534 118.55 166.534 113.733C166.534 110.927 165.4 105.363 159.704 105.363C154.385 105.363 153.798 111.103 153.798 114.663C153.798 120.484 157.442 122.033 159.787 122.033ZM192.844 117.719C192.72 118.766 191.714 121.865 188.95 123.709C187.944 124.379 186.521 125.216 183.001 125.216C176.844 125.216 173.201 120.568 173.201 114.242C173.201 107.457 176.467 102.054 183.713 102.054C190.039 102.054 193.136 107.08 193.136 114.83C187.803 114.828 182.47 114.828 177.137 114.83C177.137 119.394 179.273 122.033 183.503 122.033C186.979 122.033 189.03 119.353 189.156 117.72L192.844 117.719ZM188.938 111.896C188.729 108.504 187.305 105.362 182.823 105.362C179.431 105.362 176.75 108.505 176.75 111.896H188.938ZM213.508 124.589H209.823V111.102C209.823 107.29 208.733 105.362 205.132 105.362C203.038 105.362 199.352 106.703 199.352 112.651V124.589H195.665V102.682H199.142V105.782H199.226C200.02 104.609 202.074 102.054 205.842 102.054C209.235 102.054 213.508 103.436 213.508 109.678V124.589Z" fill="#D3D4D5"/>
<path fill-rule="evenodd" clip-rule="evenodd" d="M131.122 125.407C121.76 125.407 117.157 119.705 115.362 113.746C117.389 123.417 128.34 132.882 162.89 137.105C195.533 141.094 216.803 131.092 223.979 126.438C223.979 126.438 228.828 124.305 225.919 127.601C225.919 127.601 205.361 146.607 165.024 146.801C124.684 146.995 92.6857 126.632 92.8798 106.074C92.6846 85.5188 124.684 65.1555 165.022 65.3496C205.361 65.5428 225.918 84.5491 225.918 84.5491C228.827 87.8465 223.978 85.713 223.978 85.713C216.802 81.0587 195.622 71.8919 162.889 75.0465C130.696 78.1486 120.187 89.0873 116.697 96.4565C115.353 99.2926 114.747 101.966 114.594 104.661C115.464 97.6296 119.835 89.338 131.122 89.338C143.907 89.338 147.819 99.9767 147.819 107.373C147.819 114.768 143.907 125.407 131.122 125.407ZM261.094 118.297H278.125V124.5H253.937V90.245H261.094V118.297ZM234.814 106.036H249.127V124.5H244.356C244.117 123.067 243.878 121.637 243.642 120.204C241.828 122.305 239.204 125.406 232.955 125.406C224.701 125.406 217.21 119.49 217.21 107.466C217.21 98.1154 222.409 89.2897 233.956 89.338C244.453 89.338 248.604 96.1607 248.985 100.884H241.829C241.829 99.5474 239.395 95.2547 234.337 95.2547C229.233 95.2547 224.511 98.7852 224.511 107.564C224.511 116.915 229.615 119.349 234.482 119.349C236.057 119.349 241.304 118.727 242.782 111.809H234.815L234.814 106.036ZM131.122 93.4417C123.678 93.4417 119.195 99.3101 119.195 107.373C119.195 115.436 123.68 121.303 131.122 121.303C138.564 121.303 143.049 115.436 143.049 107.373C143.049 99.3101 138.564 93.4417 131.122 93.4417ZM150.387 102.594H153.864V105.693H153.948C154.827 104.437 156.503 101.965 160.482 101.965C166.303 101.965 170.453 106.899 170.453 113.058C170.453 118.293 167.435 125.128 159.98 125.128C157.048 125.128 155.121 123.745 154.158 122.195H154.074V133.17H150.388L150.387 102.594ZM159.701 121.945C163.722 121.945 166.446 118.461 166.446 113.645C166.446 110.838 165.312 105.275 159.616 105.275C154.296 105.275 153.71 111.013 153.71 114.574C153.711 120.396 157.355 121.945 159.701 121.945ZM192.757 117.631C192.633 118.679 191.627 121.778 188.863 123.62C187.857 124.29 186.434 125.129 182.915 125.129C176.758 125.129 173.114 120.481 173.114 114.154C173.114 107.37 176.381 101.966 183.627 101.966C189.951 101.966 193.05 106.993 193.05 114.741H177.051C177.051 119.307 179.188 121.946 183.418 121.946C186.894 121.946 188.945 119.266 189.071 117.632L192.757 117.631ZM188.851 111.809C188.642 108.416 187.218 105.275 182.737 105.275C179.344 105.275 176.663 108.417 176.663 111.809H188.851ZM213.421 124.5H209.736V111.012C209.736 107.2 208.646 105.274 205.043 105.274C202.951 105.274 199.263 106.615 199.263 112.563V124.5H195.578V102.594H199.055V105.693H199.139C199.935 104.52 201.987 101.965 205.755 101.965C209.148 101.965 213.421 103.347 213.421 109.587V124.5Z" fill="#CCCDCF"/>
<path fill-rule="evenodd" clip-rule="evenodd" d="M131.036 125.317C121.675 125.317 117.071 119.615 115.276 113.658C117.303 123.328 128.254 132.794 162.804 137.017C195.447 141.005 216.717 131.003 223.893 126.349C223.893 126.349 228.74 124.217 225.833 127.513C225.833 127.513 205.275 146.518 164.937 146.712C124.598 146.907 92.5987 126.544 92.7929 105.987C92.5987 85.4304 124.598 65.0671 164.937 65.2613C205.275 65.4544 225.833 84.4608 225.833 84.4608C228.74 87.7581 223.893 85.6246 223.893 85.6246C216.717 80.9703 195.537 71.8025 162.804 74.9581C130.61 78.0613 120.102 88.999 116.611 96.3681C115.267 99.2042 114.661 101.879 114.508 104.572C115.378 97.5412 119.749 89.2496 131.036 89.2496C143.821 89.2496 147.734 99.8884 147.734 107.284C147.734 114.679 143.821 125.317 131.036 125.317ZM261.008 118.209H278.039V124.41H253.851V90.1566H261.008V118.209ZM234.728 105.948H249.041V124.41H244.27L243.554 120.116C241.742 122.217 239.118 125.316 232.869 125.316C224.615 125.316 217.124 119.401 217.124 107.378C217.124 98.0271 222.323 89.2013 233.87 89.2486C244.367 89.2486 248.518 96.0713 248.899 100.794H241.743C241.743 99.458 239.309 95.1642 234.251 95.1642C229.147 95.1642 224.425 98.6947 224.425 107.473C224.425 116.825 229.529 119.256 234.396 119.256C235.971 119.256 241.218 118.636 242.696 111.719H234.729L234.728 105.948ZM131.036 93.3522C123.594 93.3522 119.109 99.2207 119.109 107.284C119.109 115.346 123.594 121.214 131.036 121.214C138.479 121.214 142.963 115.346 142.963 107.284C142.963 99.2217 138.479 93.3522 131.036 93.3522ZM150.302 102.505H153.778V105.605H153.862C154.742 104.347 156.417 101.877 160.396 101.877C166.218 101.877 170.367 106.811 170.367 112.968C170.367 118.204 167.349 125.039 159.893 125.039C156.961 125.039 155.035 123.657 154.072 122.107H153.988V133.081H150.302V102.505ZM159.615 121.856C163.636 121.856 166.361 118.371 166.361 113.556C166.361 110.75 165.227 105.187 159.531 105.187C154.213 105.187 153.625 110.925 153.625 114.486C153.625 120.307 157.27 121.856 159.615 121.856ZM192.671 117.543C192.547 118.591 191.541 121.69 188.777 123.532C187.771 124.201 186.348 125.041 182.828 125.041C176.671 125.041 173.028 120.39 173.028 114.066C173.028 107.281 176.294 101.877 183.54 101.877C189.864 101.877 192.963 106.903 192.963 114.651H176.964C176.964 119.217 179.1 121.856 183.331 121.856C186.807 121.856 188.858 119.176 188.984 117.543C190.214 117.541 191.444 117.541 192.671 117.543ZM188.765 111.721C188.556 108.328 187.132 105.187 182.651 105.187C179.258 105.187 176.577 108.329 176.577 111.721H188.765ZM213.335 124.41H209.65V110.924C209.65 107.112 208.56 105.186 204.96 105.186C202.865 105.186 199.177 106.526 199.177 112.475V124.41H195.492V102.505H198.969V105.605H199.053C199.849 104.432 201.9 101.877 205.669 101.877C209.062 101.877 213.335 103.26 213.335 109.499V124.41Z" fill="#C6C7C9"/>
<path fill-rule="evenodd" clip-rule="evenodd" d="M130.949 125.228C121.588 125.228 116.984 119.526 115.189 113.57C117.216 123.24 128.167 132.705 162.717 136.928C195.36 140.917 216.63 130.915 223.806 126.261C223.806 126.261 228.656 124.128 225.747 127.425C225.747 127.425 205.188 146.43 164.85 146.624C124.511 146.818 92.5118 126.455 92.706 105.897C92.5118 85.341 124.511 64.9787 164.85 65.1729C205.188 65.366 225.747 84.3724 225.747 84.3724C228.656 87.6687 223.806 85.5362 223.806 85.5362C216.63 80.8819 195.45 71.7141 162.717 74.8697C130.524 77.9729 120.014 88.9106 116.524 96.2798C115.18 99.1159 114.573 101.79 114.421 104.484C115.291 97.4528 119.661 89.1612 130.948 89.1612C143.733 89.1612 147.646 99.8 147.646 107.196C147.647 114.59 143.734 125.228 130.949 125.228ZM260.921 118.12H277.952V124.323C269.891 124.321 261.828 124.321 253.765 124.323V90.0682H260.921V118.12ZM234.641 105.86C239.412 105.858 244.183 105.858 248.954 105.86V124.325C247.365 124.322 245.774 124.322 244.183 124.325L243.467 120.029C241.655 122.129 239.031 125.228 232.782 125.228C224.528 125.228 217.039 119.314 217.039 107.29C217.039 97.9397 222.238 89.114 233.783 89.1612C244.28 89.1612 248.431 95.9839 248.812 100.707H241.656C241.656 99.3716 239.222 95.0779 234.164 95.0779C229.06 95.0779 224.338 98.6084 224.338 107.387C224.338 116.737 229.442 119.17 234.309 119.17C235.882 119.17 241.131 118.55 242.609 111.632H234.642L234.641 105.86ZM130.949 93.2639C123.507 93.2639 119.022 99.1323 119.022 107.196C119.022 115.257 123.507 121.126 130.949 121.126C138.392 121.126 142.876 115.257 142.876 107.196C142.876 99.1323 138.391 93.2639 130.949 93.2639ZM150.214 102.416H153.69V105.515H153.774C154.655 104.259 156.329 101.789 160.308 101.789C166.131 101.789 170.281 106.722 170.281 112.879C170.281 118.116 167.263 124.951 159.806 124.951C156.874 124.951 154.948 123.568 153.985 122.018H153.901V132.993H150.215L150.214 102.416ZM159.528 121.768C163.549 121.768 166.274 118.282 166.274 113.466C166.274 110.662 165.14 105.097 159.445 105.097C154.126 105.097 153.538 110.835 153.538 114.397C153.538 120.219 157.183 121.768 159.528 121.768ZM192.584 117.455C192.458 118.5 191.452 121.601 188.69 123.443C187.684 124.113 186.261 124.952 182.742 124.952C176.584 124.952 172.941 120.302 172.941 113.977C172.941 107.193 176.207 101.789 183.453 101.789C189.779 101.789 192.876 106.815 192.876 114.563H176.877C176.877 119.129 179.013 121.768 183.243 121.768C186.719 121.768 188.77 119.088 188.897 117.455H192.584ZM188.678 111.632C188.469 108.24 187.046 105.097 182.563 105.097C179.171 105.097 176.49 108.24 176.49 111.632H188.678ZM213.249 124.323C212.021 124.321 210.79 124.321 209.563 124.323V110.835C209.563 107.023 208.473 105.097 204.873 105.097C202.778 105.097 199.091 106.438 199.091 112.384V124.323C197.863 124.321 196.634 124.321 195.405 124.323V102.416H198.882V105.515H198.966C199.76 104.343 201.815 101.789 205.582 101.789C208.975 101.789 213.249 103.171 213.249 109.411V124.323Z" fill="#C1C3C5"/>
<path fill-rule="evenodd" clip-rule="evenodd" d="M130.863 125.14C121.501 125.14 116.898 119.438 115.103 113.481C117.13 123.151 128.081 132.617 162.631 136.84C195.274 140.829 216.544 130.827 223.72 126.172C223.72 126.172 228.57 124.04 225.661 127.336C225.661 127.336 205.102 146.342 164.764 146.534C124.425 146.728 92.4259 126.367 92.62 105.809C92.4259 85.2527 124.425 64.8894 164.764 65.0835C205.102 65.2777 225.661 84.283 225.661 84.283C228.57 87.5804 223.72 85.4469 223.72 85.4469C216.544 80.7926 195.364 71.6258 162.631 74.7803C130.438 77.8835 119.929 88.8212 116.438 96.1914C115.094 99.0275 114.488 101.701 114.335 104.396C115.205 97.3645 119.576 89.0729 130.863 89.0729C143.649 89.0729 147.56 99.7127 147.56 107.107C147.561 114.501 143.649 125.14 130.863 125.14ZM260.835 118.032H277.866V124.233H253.679V89.9789H260.835V118.032ZM234.556 105.77H248.869V124.234H244.098C243.86 122.803 243.62 121.371 243.384 119.94C241.57 122.039 238.946 125.14 232.697 125.14C224.443 125.14 216.952 119.223 216.952 107.202C216.952 97.8504 222.152 89.0246 233.698 89.0729C244.195 89.0729 248.346 95.8956 248.728 100.619H241.571C241.571 99.2823 239.138 94.9896 234.08 94.9896C228.975 94.9896 224.253 98.5201 224.253 107.298C224.253 116.649 229.358 119.083 234.224 119.083C235.799 119.083 241.046 118.462 242.524 111.545H234.557L234.556 105.77ZM130.863 93.1755C123.42 93.1755 118.936 99.044 118.936 107.105C118.936 115.169 123.421 121.036 130.863 121.036C138.305 121.036 142.79 115.168 142.79 107.105C142.79 99.044 138.305 93.1755 130.863 93.1755ZM150.128 102.329H153.605V105.428C153.633 105.427 153.661 105.427 153.689 105.428C154.569 104.172 156.244 101.7 160.222 101.7C166.045 101.7 170.195 106.635 170.195 112.792C170.195 118.029 167.177 124.862 159.72 124.862C156.789 124.862 154.861 123.481 153.899 121.93H153.815V132.905H150.129L150.128 102.329ZM159.442 121.679C163.463 121.679 166.187 118.194 166.187 113.378C166.187 110.573 165.053 105.009 159.358 105.009C154.038 105.009 153.451 110.747 153.451 114.306C153.452 120.128 157.097 121.679 159.442 121.679ZM192.498 117.364C192.374 118.412 191.368 121.511 188.604 123.355C187.599 124.025 186.174 124.862 182.656 124.862C176.499 124.862 172.854 120.214 172.854 113.889C172.854 107.102 176.122 101.7 183.367 101.7C189.691 101.7 192.79 106.727 192.79 114.476H176.791C176.791 119.04 178.928 121.68 183.158 121.68C186.634 121.68 188.685 119.001 188.812 117.365L192.498 117.364ZM188.592 111.544C188.383 108.149 186.96 105.009 182.477 105.009C179.084 105.009 176.404 108.149 176.404 111.544C180.468 111.542 184.53 111.542 188.592 111.544ZM213.163 124.233H209.477V110.747C209.477 106.935 208.387 105.009 204.785 105.009C202.69 105.009 199.005 106.349 199.005 112.296V124.233H195.319V102.328H198.796V105.427H198.88C199.674 104.254 201.729 101.699 205.497 101.699C208.889 101.699 213.163 103.081 213.163 109.322V124.233Z" fill="#BBBCBF"/>
<path fill-rule="evenodd" clip-rule="evenodd" d="M130.777 125.052C121.416 125.052 116.812 119.35 115.018 113.391C117.044 123.061 127.995 132.529 162.544 136.75C195.187 140.74 216.457 130.738 223.634 126.084C223.634 126.084 228.482 123.95 225.575 127.248C225.575 127.248 205.016 146.253 164.678 146.445C124.339 146.642 92.3399 126.279 92.5341 105.722C92.3399 85.1645 124.339 64.8011 164.678 64.9953C205.016 65.1894 225.575 84.1948 225.575 84.1948C228.482 87.4911 223.634 85.3586 223.634 85.3586C216.458 80.7043 195.278 71.5365 162.544 74.6921C130.352 77.7953 119.842 88.733 116.352 96.1021C115.008 98.9382 114.402 101.612 114.249 104.306C115.119 97.2752 119.49 88.9836 130.777 88.9836C143.563 88.9836 147.475 99.6224 147.475 107.017C147.475 114.413 143.563 125.052 130.777 125.052ZM260.75 117.944H277.781V124.145H253.594V89.8906H260.75V117.944ZM234.47 105.682H248.783V124.146H244.012L243.296 119.852C241.484 121.951 238.861 125.052 232.611 125.052C224.357 125.052 216.866 119.135 216.866 107.114C216.866 97.7621 222.066 88.9364 233.613 88.9846C244.11 88.9846 248.258 95.8063 248.642 100.53H241.485C241.485 99.194 239.052 94.9013 233.994 94.9013C228.889 94.9013 224.167 98.4318 224.167 107.209C224.167 116.561 229.272 118.994 234.138 118.994C235.713 118.994 240.96 118.374 242.438 111.457C239.784 111.455 237.128 111.455 234.471 111.457L234.47 105.682ZM130.777 93.0873C123.335 93.0873 118.85 98.9547 118.85 107.018C118.85 115.082 123.335 120.949 130.777 120.949C138.22 120.949 142.704 115.081 142.704 107.018C142.704 98.9547 138.219 93.0873 130.777 93.0873ZM150.043 102.24H153.519V105.339H153.603C154.483 104.082 156.158 101.612 160.138 101.612C165.959 101.612 170.109 106.547 170.109 112.704C170.109 117.938 167.091 124.773 159.634 124.773C156.703 124.773 154.777 123.391 153.813 121.842H153.729V132.817C152.5 132.814 151.272 132.814 150.043 132.817V102.24ZM159.356 121.591C163.377 121.591 166.101 118.106 166.101 113.289C166.101 110.483 164.968 104.921 159.272 104.921C153.952 104.921 153.365 110.66 153.365 114.219C153.366 120.04 157.011 121.591 159.356 121.591ZM192.412 117.276C192.288 118.324 191.282 121.423 188.518 123.267C187.513 123.936 186.089 124.773 182.57 124.773C176.413 124.773 172.768 120.125 172.768 113.801C172.768 107.014 176.036 101.611 183.282 101.611C189.605 101.611 192.704 106.638 192.704 114.386H176.705C176.705 118.95 178.842 121.591 183.072 121.591C186.547 121.591 188.599 118.909 188.726 117.276H192.412ZM188.506 111.454C188.297 108.061 186.873 104.921 182.392 104.921C178.999 104.921 176.318 108.062 176.318 111.454H188.506ZM213.077 124.145H209.391V110.659C209.391 106.847 208.301 104.92 204.701 104.92C202.606 104.92 198.919 106.261 198.919 112.208V124.145H195.233V102.24H198.71V105.339H198.794C199.59 104.167 201.641 101.612 205.411 101.612C208.803 101.612 213.077 102.995 213.077 109.235V124.145Z" fill="#B5B6B8"/>
<path fill-rule="evenodd" clip-rule="evenodd" d="M130.69 124.963C121.329 124.963 116.725 119.261 114.931 113.303C116.957 122.973 127.908 132.438 162.458 136.661C195.101 140.652 216.371 130.65 223.547 125.996C223.547 125.996 228.395 123.861 225.488 127.16C225.488 127.16 204.929 146.165 164.591 146.357C124.253 146.551 92.253 126.188 92.4472 105.633C92.253 85.0761 124.253 64.7128 164.591 64.9069C204.929 65.1 225.488 84.1064 225.488 84.1064C228.395 87.4027 223.547 85.2702 223.547 85.2702C216.37 80.6149 195.19 71.4492 162.458 74.6037C130.265 77.7069 119.755 88.6446 116.265 96.0138C114.921 98.8499 114.314 101.525 114.162 104.218C115.032 97.1868 119.403 88.8952 130.69 88.8952C143.476 88.8952 147.388 99.534 147.388 106.929C147.388 114.325 143.476 124.963 130.69 124.963ZM260.663 117.855H277.694V124.056H253.507V89.8022H260.663V117.855ZM234.383 105.593H248.696V124.057H243.925L243.209 119.764C241.397 121.862 238.774 124.963 232.524 124.963C224.27 124.963 216.781 119.047 216.781 107.025C216.781 97.6737 221.98 88.848 233.526 88.8952C244.023 88.8952 248.174 95.7179 248.555 100.441H241.398C241.398 99.1046 238.965 94.8109 233.907 94.8109C228.803 94.8109 224.08 98.3414 224.08 107.119C224.08 116.471 229.185 118.904 234.052 118.904C235.624 118.904 240.873 118.284 242.351 111.364H234.384L234.383 105.593ZM130.69 92.9989C123.248 92.9989 118.763 98.8673 118.763 106.93C118.763 114.993 123.248 120.861 130.69 120.861C138.133 120.861 142.617 114.992 142.617 106.93C142.617 98.8673 138.132 92.9989 130.69 92.9989ZM149.955 102.151H153.431V105.25H153.516C154.396 103.994 156.07 101.524 160.05 101.524C165.872 101.524 170.022 106.458 170.022 112.615C170.022 117.85 167.004 124.685 159.547 124.685C156.616 124.685 154.69 123.302 153.726 121.753H153.642V132.728C152.413 132.726 151.185 132.726 149.956 132.728L149.955 102.151ZM159.27 121.501C163.291 121.501 166.017 118.018 166.017 113.201C166.017 110.395 164.883 104.831 159.187 104.831C153.867 104.831 153.28 110.57 153.28 114.13C153.279 119.952 156.924 121.501 159.27 121.501ZM192.325 117.188C192.199 118.235 191.193 121.334 188.431 123.178C187.426 123.848 186.002 124.685 182.483 124.685C176.326 124.685 172.682 120.037 172.682 113.71C172.682 106.926 175.949 101.523 183.195 101.523C189.52 101.523 192.617 106.548 192.617 114.298H176.618C176.618 118.862 178.754 121.501 182.984 121.501C186.46 121.501 188.511 118.821 188.638 117.188H192.325ZM188.419 111.365C188.21 107.972 186.787 104.831 182.304 104.831C178.911 104.831 176.231 107.972 176.231 111.365H188.419ZM212.99 124.056H209.304V110.57C209.304 106.758 208.214 104.831 204.614 104.831C202.519 104.831 198.832 106.171 198.832 112.119V124.056H195.146V102.15H198.623V105.249H198.707C199.501 104.077 201.554 101.523 205.324 101.523C208.717 101.523 212.99 102.905 212.99 109.146V124.056Z" fill="#AEB0B2"/>
<path fill-rule="evenodd" clip-rule="evenodd" d="M130.604 124.875C121.243 124.875 116.64 119.173 114.845 113.214C116.871 122.884 127.822 132.35 162.371 136.573C195.014 140.562 216.284 130.56 223.461 125.905C223.461 125.905 228.311 123.773 225.402 127.069C225.402 127.069 204.843 146.077 164.505 146.269C124.167 146.463 92.1671 126.1 92.3612 105.543C92.1671 84.9877 124.167 64.6234 164.505 64.8175C204.843 65.0117 225.402 84.017 225.402 84.017C228.311 87.3144 223.461 85.1809 223.461 85.1809C216.285 80.5266 195.105 71.3598 162.371 74.5144C130.179 77.6175 119.669 88.5552 116.179 95.9254C114.835 98.7615 114.228 101.435 114.076 104.13C114.946 97.0985 119.317 88.8069 130.604 88.8069C143.39 88.8069 147.302 99.4457 147.302 106.841C147.302 114.236 143.39 124.875 130.604 124.875ZM260.577 117.765H277.608V123.968H253.421V89.7129H260.577V117.765ZM234.297 105.505H248.61V123.969H243.839L243.123 119.675C241.311 121.774 238.688 124.875 232.438 124.875C224.185 124.875 216.693 118.958 216.693 106.935C216.693 97.5844 221.893 88.7586 233.44 88.8069C243.937 88.8069 248.088 95.6286 248.469 100.353H241.312C241.312 99.0163 238.879 94.7226 233.821 94.7226C228.717 94.7226 223.995 98.2541 223.995 107.032C223.995 116.383 229.099 118.817 233.966 118.817C235.538 118.817 240.787 118.195 242.265 111.277H234.298L234.297 105.505ZM130.604 92.9106C123.162 92.9106 118.677 98.779 118.677 106.842C118.677 114.905 123.162 120.771 130.604 120.771C138.047 120.771 142.531 114.905 142.531 106.842C142.531 98.778 138.046 92.9106 130.604 92.9106ZM149.869 102.063H153.346V105.162H153.43C154.309 103.906 155.984 101.434 159.964 101.434C165.786 101.434 169.936 106.37 169.936 112.527C169.936 117.762 166.917 124.597 159.461 124.597C156.53 124.597 154.603 123.214 153.64 121.665C153.612 121.663 153.584 121.663 153.556 121.665V132.638H149.87L149.869 102.063ZM159.184 121.412C163.206 121.412 165.93 117.929 165.93 113.113C165.93 110.306 164.796 104.743 159.1 104.743C153.78 104.743 153.193 110.48 153.193 114.041C153.193 119.863 156.838 121.412 159.184 121.412ZM192.239 117.099C192.115 118.147 191.11 121.246 188.345 123.088C187.34 123.758 185.915 124.597 182.397 124.597C176.24 124.597 172.595 119.949 172.595 113.622C172.595 106.837 175.862 101.434 183.109 101.434C189.432 101.434 192.531 106.46 192.531 114.209H176.532C176.532 118.775 178.669 121.413 182.899 121.413C186.375 121.413 188.426 118.733 188.553 117.1L192.239 117.099ZM188.333 111.277C188.123 107.884 186.701 104.743 182.218 104.743C178.825 104.743 176.145 107.884 176.145 111.277H188.333ZM212.904 123.968H209.218V110.48C209.218 106.668 208.128 104.743 204.526 104.743C202.431 104.743 198.746 106.082 198.746 112.031V123.968H195.06V102.062H198.537V105.161H198.622C199.416 103.989 201.47 101.433 205.238 101.433C208.631 101.433 212.904 102.816 212.904 109.057V123.968Z" fill="#A8AAAC"/>
<path fill-rule="evenodd" clip-rule="evenodd" d="M130.518 124.785C121.157 124.785 116.553 119.083 114.759 113.126C116.786 122.796 127.736 132.262 162.286 136.485C194.929 140.473 216.199 130.471 223.375 125.817C223.375 125.817 228.225 123.685 225.316 126.981C225.316 126.981 204.757 145.986 164.42 146.18C124.082 146.375 92.0821 126.011 92.2763 105.454C92.0811 84.8983 124.081 64.536 164.419 64.7291C204.757 64.9233 225.315 83.9286 225.315 83.9286C228.224 87.2249 223.374 85.0914 223.374 85.0914C216.198 80.4372 195.018 71.2704 162.285 74.426C130.093 77.5292 119.584 88.4668 116.093 95.837C114.749 98.6731 114.142 101.347 113.99 104.041C114.86 97.0101 119.23 88.7185 130.518 88.7185C143.304 88.7185 147.215 99.3573 147.215 106.753C147.215 114.149 143.305 124.785 130.518 124.785ZM260.491 117.676H277.523V123.88C269.461 123.878 261.398 123.878 253.335 123.88V89.6245H260.491V117.676ZM234.211 105.417H248.524V123.881C246.935 123.879 245.344 123.879 243.753 123.881C243.515 122.448 243.275 121.018 243.039 119.585C241.225 121.686 238.602 124.785 232.352 124.785C224.099 124.785 216.609 118.87 216.609 106.847C216.609 97.496 221.809 88.6702 233.354 88.7185C243.851 88.7185 248.002 95.5412 248.383 100.264H241.226C241.226 98.9279 238.793 94.6352 233.737 94.6352C228.631 94.6352 223.909 98.1657 223.909 106.944C223.909 116.296 229.013 118.727 233.88 118.727C235.454 118.727 240.701 118.107 242.179 111.19H234.212L234.211 105.417ZM130.518 92.8212C123.075 92.8212 118.591 98.6896 118.591 106.752C118.591 114.814 123.076 120.682 130.518 120.682C137.96 120.682 142.445 114.814 142.445 106.752C142.445 98.6896 137.961 92.8212 130.518 92.8212ZM149.783 101.974H153.26V105.073H153.345C154.224 103.816 155.899 101.345 159.879 101.345C165.7 101.345 169.85 106.279 169.85 112.436C169.85 117.672 166.832 124.507 159.375 124.507C156.444 124.507 154.518 123.125 153.554 121.575H153.47V132.549H149.784L149.783 101.974ZM159.098 121.324C163.119 121.324 165.844 117.841 165.844 113.024C165.844 110.218 164.71 104.655 159.014 104.655C153.695 104.655 153.107 110.393 153.107 113.954C153.107 119.775 156.752 121.324 159.098 121.324ZM192.154 117.011C192.029 118.059 191.024 121.158 188.259 122.999C187.254 123.669 185.83 124.508 182.311 124.508C176.154 124.508 172.51 119.858 172.51 113.534C172.51 106.749 175.778 101.345 183.023 101.345C189.348 101.345 192.447 106.371 192.447 114.119H176.447C176.447 118.685 178.582 121.324 182.813 121.324C186.289 121.324 188.341 118.644 188.467 117.011H192.154ZM188.247 111.189C188.038 107.796 186.615 104.655 182.133 104.655C178.74 104.655 176.059 107.797 176.059 111.189H188.247ZM212.818 123.88C211.59 123.878 210.36 123.878 209.132 123.88V110.392C209.132 106.58 208.042 104.654 204.442 104.654C202.348 104.654 198.662 105.994 198.662 111.943V123.88C197.433 123.878 196.203 123.878 194.974 123.88V101.974H198.451V105.073H198.536C199.332 103.9 201.384 101.345 205.152 101.345C208.545 101.345 212.818 102.728 212.818 108.967V123.88Z" fill="#A2A4A6"/>
<path fill-rule="evenodd" clip-rule="evenodd" d="M130.431 124.696C121.07 124.696 116.466 118.994 114.672 113.038C116.7 122.708 127.65 132.173 162.2 136.396C194.842 140.385 216.112 130.383 223.289 125.729C223.289 125.729 228.138 123.596 225.229 126.893C225.229 126.893 204.67 145.898 164.333 146.092C123.994 146.286 91.9952 125.923 92.1894 105.365C91.9942 84.8101 123.994 64.4468 164.332 64.6409C204.67 64.834 225.228 83.8394 225.228 83.8394C228.137 87.1367 223.287 85.0032 223.287 85.0032C216.111 80.3489 194.931 71.1811 162.199 74.3367C130.006 77.4409 119.497 88.3786 116.006 95.7478C114.663 98.5839 114.055 101.258 113.903 103.952C114.774 96.9208 119.143 88.6292 130.431 88.6292C143.217 88.6292 147.128 99.268 147.128 106.664C147.129 114.058 143.218 124.696 130.431 124.696ZM260.405 117.588H277.436V123.789H253.248V89.5352H260.405V117.588ZM234.125 105.327H248.438V123.79H243.666C243.428 122.36 243.189 120.93 242.952 119.497C241.138 121.595 238.515 124.696 232.265 124.696C224.012 124.696 216.52 118.782 216.52 106.758C216.52 97.4077 221.722 88.582 233.267 88.6292C243.764 88.6292 247.915 95.4519 248.296 100.175H241.139C241.139 98.8396 238.706 94.5449 233.65 94.5449C228.544 94.5449 223.822 98.0764 223.822 106.855C223.822 116.205 228.926 118.638 233.793 118.638C235.367 118.638 240.614 118.018 242.093 111.1H234.126L234.125 105.327ZM130.431 92.7329C122.988 92.7329 118.504 98.6013 118.504 106.665C118.504 114.726 122.989 120.595 130.431 120.595C137.873 120.595 142.358 114.726 142.358 106.665C142.359 98.6013 137.873 92.7329 130.431 92.7329ZM149.697 101.885H153.174V104.984H153.258C154.137 103.728 155.812 101.258 159.792 101.258C165.613 101.258 169.763 106.191 169.763 112.348C169.763 117.585 166.745 124.42 159.29 124.42C156.358 124.42 154.431 123.038 153.468 121.487H153.384V132.462H149.698L149.697 101.885ZM159.011 121.236C163.032 121.236 165.757 117.75 165.757 112.934C165.757 110.13 164.623 104.566 158.927 104.566C153.607 104.566 153.021 110.304 153.021 113.866C153.021 119.687 156.665 121.236 159.011 121.236ZM192.067 116.921C191.942 117.968 190.937 121.067 188.172 122.911C187.167 123.581 185.743 124.42 182.225 124.42C176.068 124.42 172.423 119.77 172.423 113.445C172.423 106.661 175.691 101.257 182.936 101.257C189.261 101.257 192.358 106.283 192.358 114.031H176.36C176.36 118.597 178.496 121.236 182.726 121.236C186.202 121.236 188.256 118.556 188.38 116.921H192.067ZM188.16 111.1C187.951 107.708 186.528 104.566 182.046 104.566C178.653 104.566 175.972 107.709 175.972 111.1H188.16ZM212.731 123.79H209.045V110.304C209.045 106.492 207.955 104.566 204.355 104.566C202.261 104.566 198.573 105.907 198.573 111.853V123.79H194.887V101.885H198.364V104.984H198.449C199.245 103.812 201.297 101.258 205.065 101.258C208.458 101.258 212.731 102.64 212.731 108.88V123.79Z" fill="#9C9EA0"/>
<path fill-rule="evenodd" clip-rule="evenodd" d="M130.345 124.608C120.984 124.608 116.38 118.906 114.586 112.949C116.613 122.619 127.564 132.085 162.114 136.308C194.756 140.297 216.027 130.295 223.203 125.64C223.203 125.64 228.052 123.508 225.143 126.804C225.143 126.804 204.584 145.81 164.246 146.004C123.908 146.197 91.9093 125.835 92.1034 105.277C91.9083 84.7217 123.908 64.3584 164.246 64.5525C204.584 64.7467 225.143 83.752 225.143 83.752C228.052 87.0494 223.203 84.9158 223.203 84.9158C216.027 80.2616 194.847 71.0948 162.114 74.2504C129.92 77.3536 119.412 88.2902 115.921 95.6604C114.578 98.4965 113.971 101.17 113.819 103.865C114.689 96.8335 119.058 88.5419 130.346 88.5419C143.132 88.5419 147.044 99.1807 147.044 106.574C147.044 113.969 143.131 124.608 130.345 124.608ZM260.319 117.501H277.35V123.702H253.162V89.4479H260.319V117.501ZM234.039 105.239H248.352V123.702H243.58L242.864 119.408C241.052 121.507 238.429 124.608 232.179 124.608C223.926 124.608 216.436 118.691 216.436 106.67C216.436 97.3193 221.635 88.4926 233.181 88.5409C243.678 88.5409 247.829 95.3636 248.21 100.086H241.053C241.053 98.7503 238.62 94.4565 233.562 94.4565C228.458 94.4565 223.736 97.9881 223.736 106.767C223.736 116.116 228.84 118.55 233.707 118.55C235.281 118.55 240.528 117.929 242.007 111.012H234.04L234.039 105.239ZM130.345 92.6445C122.902 92.6445 118.418 98.513 118.418 106.574C118.418 114.638 122.903 120.505 130.345 120.505C137.787 120.505 142.272 114.637 142.272 106.574C142.272 98.513 137.788 92.6445 130.345 92.6445ZM149.612 101.797H153.088V104.897H153.172C154.051 103.64 155.726 101.169 159.706 101.169C165.527 101.169 169.678 106.104 169.678 112.261C169.678 117.498 166.659 124.333 159.204 124.333C156.272 124.333 154.345 122.95 153.381 121.4H153.297V132.375H149.612V101.797ZM158.925 121.147C162.947 121.147 165.672 117.662 165.672 112.846C165.672 110.041 164.538 104.477 158.842 104.477C153.523 104.477 152.937 110.215 152.937 113.774C152.936 119.599 156.579 121.147 158.925 121.147ZM191.981 116.834C191.856 117.88 190.851 120.979 188.086 122.823C187.08 123.493 185.656 124.332 182.138 124.332C175.981 124.332 172.337 119.682 172.337 113.357C172.337 106.572 175.604 101.168 182.85 101.168C189.175 101.168 192.272 106.195 192.272 113.944H176.274C176.274 118.51 178.409 121.148 182.64 121.148C186.116 121.148 188.168 118.468 188.294 116.835C189.524 116.832 190.753 116.832 191.981 116.834ZM188.075 111.012C187.866 107.619 186.442 104.477 181.96 104.477C178.567 104.477 175.886 107.619 175.886 111.012H188.075ZM212.645 123.702H208.959V110.216C208.959 106.404 207.869 104.478 204.269 104.478C202.175 104.478 198.489 105.818 198.489 111.765V123.702H194.801V101.797H198.278V104.897H198.363C199.159 103.724 201.211 101.169 204.979 101.169C208.372 101.169 212.645 102.552 212.645 108.792V123.702Z" fill="#989A9C"/>
<path fill-rule="evenodd" clip-rule="evenodd" d="M130.259 124.521C120.898 124.521 116.296 118.819 114.5 112.862C116.528 122.53 127.478 131.998 162.028 136.219C194.67 140.209 215.941 130.207 223.117 125.553C223.117 125.553 227.966 123.419 225.057 126.717C225.057 126.717 204.499 145.722 164.16 145.914C123.822 146.108 91.8224 125.747 92.0165 105.19C91.8224 84.6323 123.822 64.27 164.16 64.4641C204.499 64.6583 225.057 83.6636 225.057 83.6636C227.966 86.961 223.117 84.8275 223.117 84.8275C215.941 80.1732 194.761 71.0064 162.028 74.161C129.834 77.2631 119.325 88.2018 115.834 95.571C114.491 98.4071 113.884 101.081 113.732 103.775C114.602 96.7441 118.971 88.4525 130.258 88.4525C143.044 88.4525 146.957 99.0912 146.957 106.486C146.958 113.881 143.045 124.521 130.259 124.521ZM260.233 117.412H277.264V123.614H253.076V89.3595H260.233V117.412ZM233.953 105.15H248.266V123.614H243.494C243.256 122.183 243.017 120.751 242.78 119.32C240.966 121.419 238.343 124.52 232.093 124.52C223.84 124.52 216.35 118.603 216.35 106.582C216.35 97.2299 221.55 88.4042 233.095 88.4525C243.592 88.4525 247.743 95.2741 248.124 99.9983H240.967C240.967 98.6619 238.534 94.3692 233.476 94.3692C228.372 94.3692 223.65 97.8997 223.65 106.677C223.65 116.029 228.754 118.462 233.621 118.462C235.196 118.462 240.443 117.842 241.921 110.925H233.954L233.953 105.15ZM130.259 92.5562C122.817 92.5562 118.332 98.4236 118.332 106.486C118.332 114.55 122.817 120.417 130.259 120.417C137.702 120.417 142.186 114.549 142.186 106.486C142.186 98.4236 137.702 92.5562 130.259 92.5562ZM149.525 101.709H153.002V104.808H153.086C153.965 103.551 155.641 101.081 159.62 101.081C165.441 101.081 169.591 106.016 169.591 112.173C169.591 117.409 166.573 124.242 159.117 124.242C156.185 124.242 154.259 122.86 153.295 121.311H153.211V132.285H149.526L149.525 101.709ZM158.839 121.059C162.86 121.059 165.585 117.574 165.585 112.757C165.585 109.951 164.451 104.389 158.755 104.389C153.436 104.389 152.849 110.127 152.849 113.686C152.85 119.509 156.493 121.059 158.839 121.059ZM191.895 116.744C191.77 117.792 190.765 120.891 188 122.734C186.994 123.404 185.57 124.241 182.052 124.241C175.895 124.241 172.252 119.593 172.252 113.269C172.252 106.482 175.518 101.08 182.764 101.08C189.089 101.08 192.189 106.107 192.189 113.855H176.188C176.188 118.419 178.323 121.06 182.553 121.06C186.029 121.06 188.082 118.38 188.207 116.745L191.895 116.744ZM187.989 110.922C187.78 107.531 186.356 104.389 181.874 104.389C178.482 104.389 175.801 107.531 175.801 110.922H187.989ZM212.559 123.614H208.873V110.128C208.873 106.316 207.784 104.39 204.183 104.39C202.089 104.39 198.403 105.73 198.403 111.677V123.614H194.715V101.709H198.193V104.808H198.277C199.073 103.636 201.125 101.081 204.893 101.081C208.286 101.081 212.559 102.463 212.559 108.704V123.614Z" fill="#929496"/>
<path fill-rule="evenodd" clip-rule="evenodd" d="M130.172 124.432C120.81 124.432 116.208 118.73 114.413 112.772C116.44 122.442 127.391 131.907 161.941 136.13C194.583 140.121 215.854 130.119 223.03 125.465C223.03 125.465 227.879 123.33 224.97 126.629C224.97 126.629 204.412 145.634 164.074 145.826C123.735 146.021 91.7354 125.658 91.9296 105.101C91.7354 84.544 123.735 64.1806 164.073 64.3748C204.412 64.5679 224.969 83.5743 224.969 83.5743C227.878 86.8706 223.029 84.7381 223.029 84.7381C215.853 80.0838 194.673 70.9171 161.94 74.0716C129.746 77.1748 119.238 88.1115 115.747 95.4817C114.404 98.3178 113.797 100.992 113.645 103.686C114.515 96.6547 118.884 88.3631 130.172 88.3631C142.958 88.3631 146.87 99.0019 146.87 106.397C146.871 113.793 142.958 124.432 130.172 124.432ZM260.146 117.324H277.177V123.525H252.989V89.2712H260.146V117.324ZM233.866 105.062H248.179V123.525H243.407C243.169 122.094 242.93 120.663 242.694 119.232C240.88 121.33 238.256 124.431 232.007 124.431C223.753 124.431 216.262 118.515 216.262 106.493C216.262 97.1416 221.463 88.3159 233.008 88.3631C243.505 88.3631 247.656 95.1858 248.037 99.9089H240.881C240.881 98.5735 238.447 94.2798 233.391 94.2798C228.285 94.2798 223.563 97.8103 223.563 106.588C223.563 115.939 228.667 118.373 233.534 118.373C235.109 118.373 240.356 117.752 241.834 110.833H233.867L233.866 105.062ZM130.172 92.4668C122.729 92.4668 118.246 98.3352 118.246 106.398C118.246 114.461 122.73 120.329 130.172 120.329C137.615 120.329 142.099 114.46 142.099 106.398C142.1 98.3352 137.615 92.4668 130.172 92.4668ZM149.439 101.619H152.915V104.719H152.999C153.878 103.463 155.554 100.992 159.533 100.992C165.354 100.992 169.504 105.926 169.504 112.083C169.504 117.318 166.486 124.153 159.031 124.153C156.099 124.153 154.172 122.77 153.21 121.221H153.125V132.196C151.897 132.194 150.668 132.194 149.44 132.196L149.439 101.619ZM158.752 120.97C162.773 120.97 165.498 117.486 165.498 112.67C165.498 109.864 164.364 104.301 158.668 104.301C153.348 104.301 152.762 110.04 152.762 113.599C152.763 119.421 156.406 120.97 158.752 120.97ZM191.808 116.655C191.684 117.703 190.678 120.802 187.913 122.646C186.907 123.314 185.483 124.153 181.965 124.153C175.808 124.153 172.164 119.505 172.164 113.178C172.164 106.394 175.431 100.991 182.677 100.991C189.003 100.991 192.1 106.016 192.1 113.766H176.101C176.101 118.33 178.237 120.969 182.467 120.969C185.944 120.969 187.996 118.289 188.121 116.655H191.808ZM187.902 110.833C187.693 107.44 186.269 104.3 181.787 104.3C178.395 104.3 175.714 107.441 175.714 110.833H187.902ZM212.472 123.525H208.787V110.039C208.787 106.227 207.697 104.3 204.094 104.3C202.002 104.3 198.314 105.64 198.314 111.588V123.525H194.629V101.619H198.106V104.719H198.19C198.986 103.546 201.038 100.992 204.806 100.992C208.199 100.992 212.472 102.374 212.472 108.614V123.525Z" fill="#8D8E91"/>
<path fill-rule="evenodd" clip-rule="evenodd" d="M130.086 124.344C120.726 124.344 116.123 118.642 114.327 112.683C116.354 122.353 127.305 131.819 161.855 136.042C194.497 140.033 215.768 130.029 222.944 125.374C222.944 125.374 227.791 123.242 224.884 126.54C224.884 126.54 204.326 145.546 163.987 145.738C123.649 145.932 91.6505 125.569 91.8446 105.012C91.6495 84.4557 123.649 64.0924 163.987 64.2865C204.326 64.4796 224.884 83.485 224.884 83.485C227.791 86.7823 222.944 84.6488 222.944 84.6488C215.768 79.9946 194.588 70.8267 161.855 73.9823C129.661 77.0855 119.153 88.0232 115.661 95.3924C114.318 98.2285 113.712 100.902 113.559 103.597C114.429 96.5654 118.8 88.2738 130.086 88.2738C142.872 88.2738 146.785 98.9126 146.785 106.307C146.785 113.704 142.872 124.344 130.086 124.344ZM260.06 117.236C265.737 117.234 271.416 117.234 277.091 117.236V123.437H252.903V89.1819H260.06V117.236ZM233.78 104.973H248.093V123.437H243.321L242.606 119.143C240.794 121.242 238.17 124.343 231.921 124.343C223.667 124.343 216.178 118.426 216.178 106.405C216.178 97.0534 221.376 88.2266 232.922 88.2749C243.419 88.2749 247.57 95.0976 247.951 99.8206H240.795C240.795 98.4853 238.361 94.1905 233.303 94.1905C228.199 94.1905 223.477 97.7221 223.477 106.5C223.477 115.851 228.581 118.285 233.448 118.285C235.023 118.285 240.27 117.664 241.748 110.745H233.781L233.78 104.973ZM130.086 92.3785C122.644 92.3785 118.16 98.247 118.16 106.31C118.16 114.373 122.644 120.24 130.086 120.24C137.53 120.24 142.013 114.372 142.013 106.31C142.013 98.247 137.53 92.3785 130.086 92.3785ZM149.353 101.531H152.829V104.63H152.913C153.792 103.374 155.468 100.903 159.447 100.903C165.268 100.903 169.419 105.838 169.419 111.995C169.419 117.23 166.4 124.065 158.945 124.065C156.013 124.065 154.086 122.682 153.123 121.133H153.038V132.108C151.81 132.106 150.581 132.106 149.353 132.108V101.531ZM158.666 120.881C162.688 120.881 165.413 117.398 165.413 112.582C165.413 109.775 164.279 104.213 158.583 104.213C153.263 104.213 152.678 109.952 152.678 113.511C152.677 119.332 156.32 120.881 158.666 120.881ZM191.722 116.567C191.598 117.615 190.592 120.714 187.827 122.558C186.821 123.228 185.397 124.065 181.879 124.065C175.722 124.065 172.079 119.417 172.079 113.09C172.079 106.305 175.345 100.902 182.591 100.902C188.917 100.902 192.014 105.927 192.014 113.678C186.682 113.676 181.348 113.676 176.015 113.678C176.015 118.242 178.15 120.88 182.381 120.88C185.858 120.88 187.909 118.2 188.034 116.567H191.722ZM187.816 110.745C187.607 107.352 186.183 104.212 181.701 104.212C178.309 104.212 175.628 107.353 175.628 110.745H187.816ZM212.386 123.437H208.701V109.951C208.701 106.139 207.611 104.212 204.01 104.212C201.916 104.212 198.228 105.551 198.228 111.5V123.437H194.543V101.531H198.02V104.63H198.104C198.9 103.458 200.952 100.903 204.72 100.903C208.113 100.903 212.386 102.285 212.386 108.526V123.437Z" fill="#87898B"/>
<path fill-rule="evenodd" clip-rule="evenodd" d="M130.001 124.256C120.64 124.256 116.036 118.554 114.241 112.595C116.268 122.265 127.219 131.731 161.769 135.954C194.411 139.942 215.682 129.94 222.858 125.286C222.858 125.286 227.707 123.154 224.798 126.45C224.798 126.45 204.24 145.455 163.901 145.649C123.563 145.844 91.5636 125.48 91.7577 104.924C91.5636 84.3673 123.563 64.004 163.901 64.1982C204.24 64.3923 224.798 83.3977 224.798 83.3977C227.707 86.695 222.858 84.5615 222.858 84.5615C215.682 79.9072 194.502 70.7404 161.769 73.895C129.575 76.9971 119.066 87.9358 115.576 95.306C114.232 98.1422 113.625 100.816 113.473 103.509C114.343 96.4781 118.713 88.1865 130 88.1865C142.785 88.1865 146.698 98.8252 146.698 106.221C146.698 113.617 142.786 124.256 130.001 124.256ZM259.974 117.145H277.005V123.349H252.817V89.0935H259.974V117.145ZM233.694 104.885H248.007V123.349H243.236C242.997 121.916 242.758 120.486 242.522 119.055C240.708 121.154 238.084 124.255 231.835 124.255C223.581 124.255 216.092 118.338 216.092 106.315C216.092 96.9639 221.291 88.1382 232.836 88.1865C243.333 88.1865 247.484 95.0092 247.865 99.7323H240.709C240.709 98.3959 238.275 94.1032 233.217 94.1032C228.113 94.1032 223.391 97.6337 223.391 106.412C223.391 115.764 228.495 118.197 233.362 118.197C234.937 118.197 240.184 117.576 241.662 110.658H233.695L233.694 104.885ZM130.001 92.2902C122.558 92.2902 118.074 98.1586 118.074 106.221C118.074 114.285 122.558 120.151 130.001 120.151C137.444 120.151 141.927 114.285 141.927 106.221C141.927 98.1586 137.444 92.2902 130.001 92.2902ZM149.266 101.443H152.742V104.542H152.826C153.706 103.285 155.382 100.814 159.36 100.814C165.181 100.814 169.331 105.749 169.331 111.907C169.331 117.141 166.313 123.976 158.857 123.976C155.925 123.976 153.999 122.594 153.036 121.045C153.008 121.043 152.979 121.043 152.951 121.045V132.017H149.266V101.443ZM158.581 120.793C162.602 120.793 165.327 117.31 165.327 112.493C165.327 109.687 164.193 104.124 158.497 104.124C153.178 104.124 152.591 109.861 152.591 113.422C152.591 119.244 156.234 120.793 158.581 120.793ZM191.636 116.479C191.512 117.527 190.506 120.626 187.741 122.467C186.735 123.137 185.311 123.976 181.793 123.976C175.636 123.976 171.993 119.328 171.993 113.002C171.993 106.217 175.259 100.814 182.505 100.814C188.831 100.814 191.928 105.84 191.928 113.588H175.929C175.929 118.154 178.065 120.793 182.295 120.793C185.771 120.793 187.823 118.113 187.948 116.48L191.636 116.479ZM187.731 110.657C187.521 107.264 186.097 104.123 181.616 104.123C178.224 104.123 175.543 107.264 175.543 110.657H187.731ZM212.3 123.349H208.615V109.861C208.615 106.051 207.525 104.124 203.924 104.124C201.83 104.124 198.144 105.463 198.144 111.412V123.349H194.457V101.443H197.934V104.542H198.018C198.814 103.369 200.866 100.814 204.634 100.814C208.027 100.814 212.3 102.196 212.3 108.436V123.349Z" fill="#828385"/>
<path fill-rule="evenodd" clip-rule="evenodd" d="M129.914 124.165C120.552 124.165 115.949 118.463 114.154 112.507C116.181 122.177 127.132 131.642 161.682 135.865C194.325 139.854 215.595 129.852 222.771 125.198C222.771 125.198 227.62 123.065 224.711 126.362C224.711 126.362 204.153 145.367 163.816 145.561C123.476 145.756 91.4767 125.393 91.6708 104.835C91.4767 84.279 123.476 63.9157 163.815 64.1088C204.153 64.3029 224.71 83.3083 224.71 83.3083C227.619 86.6056 222.77 84.4721 222.77 84.4721C215.594 79.8178 194.414 70.65 161.681 73.8056C129.487 76.9088 118.979 87.8465 115.489 95.2156C114.145 98.0518 113.538 100.726 113.386 103.42C114.256 96.3887 118.626 88.0971 129.914 88.0971C142.699 88.0971 146.611 98.7359 146.611 106.132C146.612 113.528 142.699 124.165 129.914 124.165ZM259.887 117.057H276.918V123.258H252.73V89.0052H259.887V117.057ZM233.607 104.796H247.92V123.258H243.149C242.91 121.827 242.671 120.398 242.435 118.965C240.621 121.065 237.997 124.164 231.748 124.164C223.494 124.164 216.003 118.25 216.003 106.226C216.003 96.8756 221.204 88.0499 232.749 88.0971C243.246 88.0971 247.397 94.9198 247.778 99.6429H240.622C240.622 98.3065 238.188 94.0128 233.132 94.0128C228.026 94.0128 223.304 97.5433 223.304 106.322C223.304 115.673 228.408 118.105 233.275 118.105C234.85 118.105 240.097 117.484 241.575 110.567H233.608L233.607 104.796ZM129.914 92.2008C122.471 92.2008 117.987 98.0692 117.987 106.133C117.987 114.194 122.472 120.063 129.914 120.063C137.356 120.063 141.841 114.194 141.841 106.133C141.841 98.0692 137.356 92.2008 129.914 92.2008ZM149.179 101.353H152.656V104.453H152.74C153.62 103.197 155.295 100.726 159.274 100.726C165.095 100.726 169.245 105.659 169.245 111.816C169.245 117.053 166.227 123.888 158.772 123.888C155.84 123.888 153.913 122.505 152.951 120.955H152.867V131.93H149.181L149.179 101.353ZM158.494 120.705C162.514 120.705 165.239 117.219 165.239 112.405C165.239 109.599 164.105 104.035 158.409 104.035C153.089 104.035 152.503 109.772 152.503 113.333C152.504 119.156 156.147 120.705 158.494 120.705ZM191.549 116.39C191.425 117.438 190.419 120.537 187.654 122.379C186.648 123.049 185.225 123.888 181.706 123.888C175.549 123.888 171.905 119.238 171.905 112.913C171.905 106.129 175.172 100.725 182.418 100.725C188.744 100.725 191.841 105.751 191.841 113.499H175.842C175.842 118.065 177.979 120.704 182.209 120.704C185.685 120.704 187.737 118.024 187.862 116.39C189.092 116.389 190.322 116.389 191.549 116.39ZM187.644 110.568C187.435 107.175 186.011 104.034 181.53 104.034C178.137 104.034 175.456 107.175 175.456 110.568H187.644ZM212.214 123.258H208.529V109.772C208.529 105.96 207.439 104.035 203.837 104.035C201.744 104.035 198.056 105.375 198.056 111.323V123.258H194.371V101.353H197.848V104.453H197.932C198.728 103.28 200.781 100.726 204.548 100.726C207.941 100.726 212.214 102.108 212.214 108.347V123.258Z" fill="#7C7D80"/>
<path fill-rule="evenodd" clip-rule="evenodd" d="M129.828 124.077C120.467 124.077 115.864 118.375 114.068 112.418C116.095 122.088 127.046 131.554 161.595 135.777C194.238 139.766 215.508 129.764 222.685 125.109C222.685 125.109 227.532 122.977 224.625 126.273C224.625 126.273 204.067 145.279 163.729 145.473C123.39 145.666 91.3917 125.303 91.5849 104.746C91.3907 84.1896 123.39 63.8263 163.729 64.0204C204.067 64.2146 224.625 83.2199 224.625 83.2199C227.532 86.5172 222.685 84.3837 222.685 84.3837C215.509 79.7295 194.329 70.5627 161.595 73.7172C129.402 76.8204 118.893 87.7581 115.403 95.1283C114.059 97.9644 113.453 100.638 113.3 103.333C114.17 96.3014 118.541 88.0098 129.828 88.0098C142.613 88.0098 146.526 98.6485 146.526 106.042C146.526 113.437 142.613 124.077 129.828 124.077ZM259.801 116.969H276.832V123.17H252.645V88.9158H259.801V116.969ZM233.521 104.707H247.834V123.17H243.063L242.347 118.876C240.535 120.975 237.911 124.076 231.662 124.076C223.408 124.076 215.917 118.159 215.917 106.138C215.917 96.7872 221.116 87.9605 232.663 88.0087C243.16 88.0087 247.311 94.8314 247.692 99.5535H240.536C240.536 98.2181 238.102 93.9244 233.044 93.9244C227.94 93.9244 223.218 97.456 223.218 106.234C223.218 115.584 228.322 118.018 233.189 118.018C234.764 118.018 240.011 117.397 241.489 110.48H233.522L233.521 104.707ZM129.828 92.1124C122.386 92.1124 117.901 97.9809 117.901 106.042C117.901 114.106 122.386 119.973 129.828 119.973C137.271 119.973 141.755 114.105 141.755 106.042C141.755 97.9809 137.271 92.1124 129.828 92.1124ZM149.094 101.265H152.57V104.364H152.654C153.534 103.108 155.209 100.636 159.188 100.636C165.01 100.636 169.159 105.571 169.159 111.728C169.159 116.965 166.141 123.8 158.686 123.8C155.754 123.8 153.827 122.417 152.864 120.867H152.78V131.842H149.094V101.265ZM158.408 120.616C162.429 120.616 165.154 117.131 165.154 112.314C165.154 109.51 164.02 103.946 158.324 103.946C153.005 103.946 152.419 109.684 152.419 113.243C152.418 119.065 156.062 120.616 158.408 120.616ZM191.463 116.303C191.339 117.349 190.333 120.448 187.568 122.292C186.562 122.961 185.139 123.801 181.62 123.801C175.463 123.801 171.819 119.151 171.819 112.826C171.819 106.041 175.086 100.637 182.332 100.637C188.656 100.637 191.755 105.664 191.755 113.413H175.756C175.756 117.978 177.892 120.617 182.123 120.617C185.599 120.617 187.65 117.937 187.776 116.304C189.006 116.301 190.236 116.301 191.463 116.303ZM187.558 110.481C187.348 107.088 185.924 103.946 181.443 103.946C178.05 103.946 175.369 107.088 175.369 110.481H187.558ZM212.128 123.17H208.443V109.684C208.443 105.872 207.353 103.946 203.751 103.946C201.658 103.946 197.97 105.286 197.97 111.233V123.17H194.285V101.265H197.762V104.364H197.846C198.642 103.192 200.695 100.636 204.462 100.636C207.855 100.636 212.128 102.019 212.128 108.259V123.17Z" fill="#76787A"/>
<path fill-rule="evenodd" clip-rule="evenodd" d="M129.741 123.989C120.38 123.989 115.776 118.287 113.981 112.33C116.008 122 126.959 131.466 161.509 135.689C194.152 139.677 215.422 129.675 222.598 125.021C222.598 125.021 227.448 122.888 224.539 126.185C224.539 126.185 203.98 145.19 163.642 145.384C123.303 145.577 91.3038 125.215 91.4979 104.658C91.3038 84.1012 123.303 63.7379 163.642 63.932C203.98 64.1262 224.539 83.1315 224.539 83.1315C227.448 86.4289 222.598 84.2954 222.598 84.2954C215.422 79.6411 194.242 70.4743 161.509 73.6289C129.316 76.732 118.806 87.6697 115.316 95.0399C113.972 97.876 113.365 100.55 113.213 103.244C114.083 96.213 118.453 87.9214 129.74 87.9214C142.525 87.9214 146.438 98.5612 146.438 105.955C146.439 113.35 142.526 123.989 129.741 123.989ZM259.714 116.88H276.745V123.082H252.558V88.8274H259.714V116.88ZM233.434 104.619H247.747V123.082H242.976L242.26 118.788C240.448 120.886 237.824 123.988 231.575 123.988C223.321 123.988 215.832 118.071 215.832 106.05C215.832 96.6978 221.031 87.8721 232.576 87.9204C243.073 87.9204 247.224 94.7431 247.605 99.4662H240.449C240.449 98.1308 238.015 93.8371 232.957 93.8371C227.853 93.8371 223.131 97.3686 223.131 106.147C223.131 115.497 228.235 117.93 233.102 117.93C234.677 117.93 239.924 117.31 241.402 110.393H233.435L233.434 104.619ZM129.741 92.0241C122.299 92.0241 117.814 97.8925 117.814 105.954C117.814 114.018 122.299 119.885 129.741 119.885C137.184 119.885 141.668 114.017 141.668 105.954C141.668 97.8925 137.184 92.0241 129.741 92.0241ZM149.006 101.176H152.482V104.277H152.566C153.447 103.019 155.122 100.549 159.1 100.549C164.922 100.549 169.071 105.484 169.071 111.641C169.071 116.877 166.054 123.71 158.597 123.71C155.665 123.71 153.739 122.328 152.776 120.779H152.692V131.753H149.006V101.176ZM158.321 120.528C162.342 120.528 165.067 117.043 165.067 112.226C165.067 109.422 163.933 103.857 158.238 103.857C152.919 103.857 152.331 109.595 152.331 113.155C152.331 118.977 155.975 120.528 158.321 120.528ZM191.376 116.213C191.25 117.26 190.246 120.36 187.481 122.203C186.475 122.873 185.052 123.71 181.534 123.71C175.376 123.71 171.733 119.062 171.733 112.738C171.733 105.953 174.999 100.549 182.245 100.549C188.571 100.549 191.668 105.576 191.668 113.324H175.669C175.669 117.888 177.805 120.529 182.035 120.529C185.511 120.529 187.563 117.849 187.689 116.214L191.376 116.213ZM187.471 110.393C187.261 106.998 185.838 103.857 181.356 103.857C177.963 103.857 175.283 106.998 175.283 110.393C179.346 110.39 183.409 110.39 187.471 110.393ZM212.042 123.082H208.356V109.595C208.356 105.783 207.266 103.857 203.666 103.857C201.571 103.857 197.884 105.198 197.884 111.144V123.082H194.198V101.176H197.675V104.277H197.759C198.553 103.103 200.608 100.549 204.376 100.549C207.768 100.549 212.042 101.93 212.042 108.172V123.082Z" fill="#737476"/>
<path fill-rule="evenodd" clip-rule="evenodd" d="M129.655 123.9C120.294 123.9 115.69 118.198 113.895 112.242C115.922 121.912 126.872 131.377 161.422 135.598C194.065 139.589 215.335 129.587 222.512 124.933C222.512 124.933 227.362 122.8 224.453 126.097C224.453 126.097 203.894 145.102 163.556 145.294C123.216 145.488 91.2179 125.127 91.412 104.568C91.2179 84.013 123.216 63.6496 163.556 63.8438C203.894 64.0379 224.453 83.0433 224.453 83.0433C227.362 86.3396 222.512 84.2071 222.512 84.2071C215.336 79.5528 194.156 70.385 161.422 73.5406C129.229 76.6438 118.72 87.5815 115.23 94.9506C113.886 97.7868 113.279 100.461 113.127 103.155C113.997 96.1237 118.368 87.8321 129.655 87.8321C142.44 87.8321 146.353 98.4709 146.353 105.866C146.353 113.262 142.44 123.9 129.655 123.9ZM259.628 116.792H276.659V122.993H252.472V88.7391H259.628V116.792ZM233.348 104.53H247.661V122.993H242.89L242.176 118.7C240.362 120.798 237.738 123.899 231.489 123.899C223.235 123.899 215.744 117.983 215.744 105.961C215.744 96.6096 220.946 87.7838 232.49 87.8321C242.987 87.8321 247.138 94.6548 247.519 99.3779H240.363C240.363 98.0415 237.93 93.7488 232.872 93.7488C227.767 93.7488 223.045 97.2793 223.045 106.057C223.045 115.408 228.149 117.842 233.016 117.842C234.589 117.842 239.838 117.221 241.316 110.304H233.349V104.53H233.348ZM129.655 91.9358C122.213 91.9358 117.728 97.8042 117.728 105.867C117.728 113.93 122.213 119.798 129.655 119.798C137.097 119.798 141.582 113.929 141.582 105.867C141.582 97.8042 137.097 91.9358 129.655 91.9358ZM148.92 101.088H152.397V104.187H152.481C153.361 102.931 155.036 100.46 159.015 100.46C164.838 100.46 168.987 105.394 168.987 111.551C168.987 116.788 165.969 123.621 158.513 123.621C155.582 123.621 153.654 122.24 152.692 120.689H152.608V131.664H148.92V101.088ZM158.235 120.44C162.256 120.44 164.98 116.954 164.98 112.138C164.98 109.332 163.846 103.769 158.151 103.769C152.832 103.769 152.244 109.507 152.244 113.066C152.244 118.889 155.889 120.44 158.235 120.44ZM191.29 116.124C191.166 117.172 190.16 120.271 187.395 122.115C186.389 122.785 184.966 123.622 181.448 123.622C175.291 123.622 171.646 118.974 171.646 112.649C171.646 105.863 174.914 100.46 182.159 100.46C188.485 100.46 191.583 105.487 191.583 113.235H175.584C175.584 117.799 177.721 120.44 181.951 120.44C185.427 120.44 187.479 117.76 187.605 116.124H191.29ZM187.385 110.302C187.175 106.911 185.752 103.769 181.27 103.769C177.877 103.769 175.196 106.911 175.196 110.302H187.385ZM211.956 122.993H208.27V109.507C208.27 105.695 207.18 103.769 203.578 103.769C201.485 103.769 197.798 105.11 197.798 111.056V122.993H194.112V101.088H197.589V104.187H197.673C198.467 103.014 200.522 100.46 204.29 100.46C207.682 100.46 211.956 101.842 211.956 108.082V122.993Z" fill="#6D6E70"/>
<path fill-rule="evenodd" clip-rule="evenodd" d="M129.655 123.9C120.294 123.9 115.69 118.198 113.895 112.242C115.922 121.912 126.872 131.377 161.422 135.598C194.065 139.589 215.335 129.587 222.512 124.933C222.512 124.933 227.362 122.8 224.453 126.097C224.453 126.097 203.894 145.102 163.556 145.294C123.216 145.488 91.2179 125.127 91.412 104.568C91.2179 84.013 123.216 63.6496 163.556 63.8438C203.894 64.0379 224.453 83.0433 224.453 83.0433C227.362 86.3396 222.512 84.2071 222.512 84.2071C215.336 79.5528 194.156 70.385 161.422 73.5406C129.229 76.6438 118.72 87.5815 115.23 94.9506C113.886 97.7868 113.279 100.461 113.127 103.155C113.997 96.1237 118.368 87.8321 129.655 87.8321C142.44 87.8321 146.353 98.4709 146.353 105.866C146.353 113.262 142.44 123.9 129.655 123.9ZM259.628 116.792H276.659V122.993H252.472V88.7391H259.628V116.792ZM233.348 104.53H247.661V122.993H242.89L242.176 118.7C240.362 120.798 237.738 123.899 231.489 123.899C223.235 123.899 215.744 117.983 215.744 105.961C215.744 96.6096 220.946 87.7838 232.49 87.8321C242.987 87.8321 247.138 94.6548 247.519 99.3779H240.363C240.363 98.0415 237.93 93.7488 232.872 93.7488C227.767 93.7488 223.045 97.2793 223.045 106.057C223.045 115.408 228.149 117.842 233.016 117.842C234.589 117.842 239.838 117.221 241.316 110.304H233.349V104.53H233.348ZM129.655 91.9358C122.213 91.9358 117.728 97.8042 117.728 105.867C117.728 113.93 122.213 119.798 129.655 119.798C137.097 119.798 141.582 113.929 141.582 105.867C141.582 97.8042 137.097 91.9358 129.655 91.9358ZM148.92 101.088H152.397V104.187H152.481C153.361 102.931 155.036 100.46 159.015 100.46C164.838 100.46 168.987 105.394 168.987 111.551C168.987 116.788 165.969 123.621 158.513 123.621C155.582 123.621 153.654 122.24 152.692 120.689H152.608V131.664H148.92V101.088ZM158.235 120.44C162.256 120.44 164.98 116.954 164.98 112.138C164.98 109.332 163.846 103.769 158.151 103.769C152.832 103.769 152.244 109.507 152.244 113.066C152.244 118.889 155.889 120.44 158.235 120.44ZM191.29 116.124C191.166 117.172 190.16 120.271 187.395 122.115C186.389 122.785 184.966 123.622 181.448 123.622C175.291 123.622 171.646 118.974 171.646 112.649C171.646 105.863 174.914 100.46 182.159 100.46C188.485 100.46 191.583 105.487 191.583 113.235H175.584C175.584 117.799 177.721 120.44 181.951 120.44C185.427 120.44 187.479 117.76 187.605 116.124H191.29ZM187.385 110.302C187.175 106.911 185.752 103.769 181.27 103.769C177.877 103.769 175.196 106.911 175.196 110.302H187.385ZM211.956 122.993H208.27V109.507C208.27 105.695 207.18 103.769 203.578 103.769C201.485 103.769 197.798 105.11 197.798 111.056V122.993H194.112V101.088H197.589V104.187H197.673C198.467 103.014 200.522 100.46 204.29 100.46C207.682 100.46 211.956 101.842 211.956 108.082V122.993Z" fill="#2DD4BF"/>
</g>
<defs>
<radialGradient id="paint0_radial_152_3272" cx="0" cy="0" r="1" gradientUnits="userSpaceOnUse" gradientTransform="translate(187.5 111.533) rotate(90) scale(96.8082 172.053)">
<stop stop-color="#1CA9C8"/>
<stop offset="1" stop-color="#1266BC"/>
</radialGradient>
<radialGradient id="paint1_angular_152_3272" cx="0" cy="0" r="1" gradientUnits="userSpaceOnUse" gradientTransform="translate(187.5 105.5) scale(187.5 105.5)">
<stop offset="0.117972" stop-color="#008DCB"/>
<stop offset="0.27379" stop-color="#0A5BD8"/>
<stop offset="0.544638" stop-color="#3C9DF4"/>
<stop offset="0.83027" stop-color="#3E90FF"/>
</radialGradient>
<radialGradient id="paint2_radial_152_3272" cx="0" cy="0" r="1" gradientUnits="userSpaceOnUse" gradientTransform="translate(187 105) rotate(90) scale(248.5 687.232)">
<stop stop-color="white"/>
<stop offset="0.221917" stop-color="#F3F7EA"/>
<stop offset="0.446646" stop-color="#9DFECF"/>
<stop offset="1" stop-color="#6EFED3"/>
</radialGradient>
<clipPath id="clip0_152_3272">
<rect width="198" height="198" fill="white" transform="translate(88.5 6.5)"/>
</clipPath>
</defs>
</svg>
