<svg width="650" height="464" viewBox="0 0 650 464" fill="none" xmlns="http://www.w3.org/2000/svg">
<path d="M293.823 268.647C282.739 250.257 263.516 244.154 257.2 242.448C255.476 237.685 254.954 232.568 255.68 227.554C257.112 217.701 259.447 201.687 259.675 200.517L211.918 219.133L163.346 235.487C164.268 236.249 176.296 247.041 183.691 253.687C187.457 257.07 190.329 261.334 192.052 266.098C188.292 271.462 177.429 288.487 180.672 309.722C183.734 329.778 197.686 342.471 206.976 350.948C213.683 357.046 221.182 362.207 229.27 366.291C232.833 368.852 236.901 370.621 241.201 371.479C245.502 372.337 249.935 372.265 254.206 371.267C255.665 370.927 258.472 370.206 261.102 369.394C262.262 369.033 263.736 368.574 265.424 367.98L265.702 367.875L265.981 367.776C267.655 367.149 269.082 366.558 270.204 366.088C272.737 365.025 275.36 363.776 276.697 363.1C280.612 361.125 284.062 358.334 286.814 354.915C289.566 351.497 291.559 347.528 292.657 343.276C296.257 334.949 298.715 326.173 299.966 317.186C301.694 304.729 304.288 286.016 293.823 268.647Z" fill="#D6B49A"/>
<path d="M247.211 372.455C240.703 372.453 234.358 370.411 229.064 366.616C220.958 362.518 213.441 357.341 206.717 351.227C197.422 342.761 183.377 329.968 180.294 309.778C177.307 290.215 186.053 274.039 191.624 266.04C189.912 261.411 187.103 257.268 183.438 253.969C176.241 247.497 164.027 236.53 163.105 235.782C163.053 235.738 163.014 235.682 162.99 235.618C162.966 235.554 162.96 235.486 162.971 235.419C162.983 235.351 163.013 235.289 163.058 235.237C163.102 235.185 163.16 235.146 163.224 235.124L211.799 218.768L259.546 200.164C259.609 200.14 259.678 200.133 259.744 200.144C259.811 200.155 259.874 200.184 259.926 200.227C259.977 200.271 260.016 200.328 260.039 200.392C260.061 200.455 260.066 200.524 260.053 200.591C259.827 201.759 257.456 218.019 256.063 227.61C255.358 232.495 255.848 237.48 257.492 242.133C266.883 244.7 283.938 251.509 294.147 268.452C304.684 285.935 302.072 304.775 300.344 317.242C299.089 326.253 296.625 335.053 293.02 343.403C291.903 347.702 289.883 351.714 287.097 355.169C284.31 358.625 280.82 361.446 276.859 363.443C275.403 364.177 272.821 365.403 270.338 366.441C269.171 366.931 267.79 367.502 266.161 368.114L266.103 368.142L265.545 368.343L265.487 368.36C263.838 368.937 262.414 369.376 261.206 369.757C258.634 370.554 255.87 371.28 254.284 371.64C251.965 372.182 249.592 372.455 247.211 372.455ZM164.101 235.634C166.68 237.894 177.391 247.513 183.947 253.405C187.756 256.833 190.663 261.148 192.411 265.969C192.432 266.026 192.439 266.088 192.431 266.148C192.423 266.209 192.401 266.267 192.366 266.317C186.866 274.166 178.083 290.233 181.049 309.664C184.089 329.59 198.023 342.273 207.234 350.666C213.914 356.74 221.383 361.881 229.437 365.951L229.488 365.982C233.007 368.51 237.024 370.257 241.271 371.104C245.518 371.952 249.897 371.881 254.115 370.896C255.69 370.528 258.434 369.82 260.988 369.028C262.201 368.655 263.635 368.203 265.295 367.622L265.345 367.606L265.796 367.444L265.844 367.421C267.486 366.807 268.884 366.23 270.052 365.738C272.515 364.707 275.076 363.491 276.523 362.763C280.391 360.812 283.799 358.056 286.52 354.68C289.24 351.303 291.209 347.383 292.295 343.182C292.301 343.163 292.308 343.144 292.316 343.126C295.901 334.832 298.35 326.09 299.597 317.138C301.309 304.777 303.903 286.098 293.501 268.845C283.36 252.016 266.341 245.309 257.102 242.816C257.044 242.799 256.99 242.769 256.946 242.727C256.902 242.686 256.869 242.634 256.848 242.578C255.109 237.753 254.583 232.574 255.315 227.498C256.582 218.768 258.662 204.505 259.202 201.116L212.06 219.486L164.101 235.634Z" fill="black"/>
<path d="M214.129 225.271C240.732 215.615 261.101 204.477 259.625 200.394C258.149 196.31 235.387 200.826 208.784 210.481C182.181 220.136 161.812 231.274 163.289 235.358C164.765 239.442 187.527 234.926 214.129 225.271Z" fill="#020202"/>
<path d="M168.177 237.226C165.436 237.226 163.402 236.756 162.938 235.477C161.925 232.684 169.122 228.062 175.332 224.665C183.945 219.958 195.779 214.789 208.661 210.111C221.543 205.432 233.939 201.807 243.558 199.898C250.5 198.522 258.982 197.463 259.987 200.248C260.993 203.033 253.803 207.666 247.594 211.063C238.981 215.769 227.15 220.938 214.265 225.614C201.38 230.29 188.989 233.918 179.367 235.83C175.613 236.574 171.407 237.226 168.177 237.226ZM254.769 199.25C252.456 199.25 248.967 199.601 243.708 200.644C234.121 202.548 221.769 206.163 208.919 210.827C196.07 215.49 184.272 220.644 175.691 225.332C163.592 231.948 163.415 234.573 163.648 235.218C163.881 235.863 165.695 237.757 179.215 235.081C188.799 233.179 201.154 229.562 214.001 224.898C226.848 220.235 238.649 215.084 247.227 210.392C259.324 203.777 259.501 201.154 259.268 200.507C259.131 200.121 258.399 199.25 254.769 199.25Z" fill="black"/>
<path d="M264.867 377.827L264.844 398.852C264.844 400.423 266.531 401.7 268.614 401.703H268.69C270.772 401.703 272.465 400.433 272.465 398.859L272.487 378.068C272.487 377.933 270.727 377.814 268.589 377.814H264.867" fill="#818181"/>
<path d="M268.688 402.084H268.606C266.326 402.084 264.457 400.632 264.457 398.852L264.48 377.446H268.581C269.62 377.446 270.608 377.472 271.368 377.517C272.412 377.583 272.873 377.632 272.873 378.071L272.85 398.862C272.837 399.322 272.715 399.771 272.495 400.174C272.274 400.577 271.962 400.922 271.583 401.18C270.74 401.785 269.725 402.102 268.688 402.084ZM265.24 378.221L265.217 398.865C265.217 400.226 266.737 401.332 268.606 401.335H268.688C269.56 401.35 270.414 401.083 271.122 400.573C271.404 400.384 271.638 400.131 271.804 399.834C271.97 399.537 272.063 399.205 272.077 398.865L272.1 378.353C270.938 378.241 269.771 378.193 268.604 378.21H265.24V378.221Z" fill="#191818"/>
<path d="M465.004 377.827L464.982 398.852C464.982 400.423 466.669 401.7 468.751 401.703H468.827C470.91 401.703 472.602 400.433 472.602 398.859L472.625 378.068C472.625 377.933 470.851 377.814 468.726 377.814H465.004" fill="#818181"/>
<path d="M468.825 402.084H468.744C466.464 402.084 464.594 400.632 464.594 398.852L464.617 377.446H468.719C469.768 377.446 470.745 377.472 471.493 377.517C472.537 377.583 472.998 377.632 472.998 378.071L472.975 398.862C472.961 399.322 472.84 399.771 472.619 400.174C472.399 400.577 472.087 400.922 471.708 401.18C470.868 401.783 469.858 402.099 468.825 402.084ZM465.377 378.221L465.354 398.865C465.354 400.226 466.874 401.333 468.744 401.335H468.825C469.697 401.35 470.551 401.083 471.26 400.573C471.542 400.384 471.775 400.131 471.941 399.834C472.107 399.537 472.201 399.205 472.215 398.865L472.238 378.353C471.076 378.241 469.909 378.193 468.742 378.21H465.377V378.221Z" fill="#191818"/>
<path d="M484.385 372.623H213.249C212.526 372.623 211.834 372.91 211.323 373.422C210.812 373.934 210.525 374.628 210.525 375.352C210.525 376.076 210.812 376.77 211.323 377.282C211.834 377.793 212.526 378.081 213.249 378.081H481.725C482.088 378.081 482.447 378.008 482.781 377.867C483.115 377.725 483.418 377.519 483.672 377.258C483.925 376.998 484.124 376.69 484.257 376.352C484.39 376.013 484.454 375.652 484.446 375.288L484.385 372.623Z" fill="#DCDBDA"/>
<path d="M481.725 378.461H213.249C212.426 378.461 211.637 378.134 211.055 377.551C210.473 376.967 210.146 376.176 210.146 375.352C210.146 374.527 210.473 373.736 211.055 373.153C211.637 372.569 212.426 372.242 213.249 372.242H484.765L484.833 375.288C484.842 375.702 484.768 376.114 484.616 376.499C484.464 376.884 484.236 377.235 483.946 377.531C483.657 377.827 483.311 378.061 482.929 378.221C482.548 378.381 482.138 378.463 481.725 378.461ZM213.249 373.003C212.628 373.003 212.031 373.251 211.592 373.691C211.153 374.131 210.906 374.729 210.906 375.352C210.906 375.974 211.153 376.572 211.592 377.012C212.031 377.452 212.628 377.7 213.249 377.7H481.725C482.037 377.7 482.346 377.637 482.633 377.515C482.921 377.394 483.181 377.216 483.399 376.992C483.617 376.769 483.789 376.504 483.903 376.213C484.018 375.922 484.073 375.611 484.066 375.298L484.013 373.013L213.249 373.003Z" fill="black"/>
<path d="M199.693 230.712C199.693 230.712 189.909 268.157 191.54 283.843C192.513 293.206 192.209 308.722 191.794 319.74C191.665 323.209 190.189 326.49 187.679 328.883C185.17 331.276 181.827 332.591 178.363 332.548C174.899 332.505 171.59 331.107 169.14 328.652C166.691 326.198 165.296 322.881 165.254 319.41C165.185 313.825 164.55 309.575 165.127 306.412C168.59 287.42 163.285 287.118 166.414 269.789C166.949 267.914 167.503 266.028 168.076 264.131C171.07 254.23 174.351 245.027 177.83 236.05C181.564 235.698 185.734 234.586 190.225 233.58C193.678 232.809 196.838 231.656 199.693 230.712Z" fill="#4EA7F1"/>
<path d="M178.538 332.925C174.951 332.913 171.511 331.49 168.958 328.964C166.405 326.438 164.942 323.01 164.883 319.415C164.861 317.44 164.762 315.607 164.676 313.972C164.519 310.996 164.382 308.425 164.762 306.356C166.535 296.681 166.001 291.855 165.491 287.189C164.985 282.586 164.514 278.24 166.049 269.733V269.698C166.591 267.804 167.151 265.89 167.713 264.031C170.437 255.022 173.54 246.091 177.477 235.923L177.563 235.705L177.796 235.682C180.699 235.411 183.894 234.667 187.276 233.88C188.216 233.661 189.171 233.438 190.144 233.222C192.788 232.589 195.397 231.814 197.959 230.902C198.505 230.716 199.041 230.536 199.568 230.364L200.229 230.143L200.055 230.821C199.956 231.194 190.304 268.375 191.91 283.818C192.877 293.137 192.589 308.511 192.176 319.765C192.053 323.304 190.562 326.656 188.016 329.112C185.471 331.569 182.072 332.936 178.538 332.925ZM166.794 269.875C165.274 278.253 165.75 282.551 166.246 287.095C166.753 291.814 167.295 296.696 165.509 306.48C165.147 308.473 165.281 311.004 165.436 313.931C165.522 315.564 165.621 317.414 165.644 319.404C165.686 322.775 167.042 325.995 169.421 328.378C171.8 330.761 175.014 332.119 178.378 332.16C181.741 332.202 184.988 330.925 187.425 328.602C189.862 326.278 191.297 323.093 191.423 319.724C191.836 308.493 192.125 293.16 191.17 283.884C189.673 269.469 197.853 236.444 199.163 231.293L198.208 231.6C195.621 232.521 192.986 233.302 190.316 233.941C189.348 234.159 188.394 234.378 187.453 234.598C184.137 235.36 180.998 236.101 178.108 236.396C174.216 246.451 171.146 255.303 168.45 264.229C167.888 266.098 167.331 267.992 166.794 269.875Z" fill="black"/>
<path d="M204.26 310.646C202.001 310.646 200.346 307.364 199.7 306.077C195.244 297.234 201.98 281.81 204.595 276.334C207.093 281.97 213.29 297.267 208.836 306.077C208.162 307.384 206.513 310.646 204.26 310.646Z" fill="#4EA7F1"/>
<path d="M204.261 311.027C201.765 311.027 200.075 307.673 199.356 306.242C195.145 297.889 200.623 283.81 204.243 276.164L204.598 275.402L204.934 276.164C208.327 283.813 213.386 297.887 209.165 306.234C208.443 307.673 206.748 311.027 204.261 311.027ZM204.572 277.245C201.025 284.909 196.101 298.1 200.03 305.899C200.633 307.092 202.231 310.265 204.258 310.265C206.285 310.265 207.881 307.092 208.486 305.899C212.426 298.098 207.896 284.912 204.572 277.245Z" fill="black"/>
<path d="M507.256 271.204C479.199 246.876 444.428 252.283 439.414 253.146C391.148 260.866 352.109 278.533 346.132 300.946C344.905 305.575 343.915 310.263 343.168 314.993C331.223 312.962 311.174 311.967 299.498 324.696L299.439 324.762C296.123 328.397 298.449 334.271 303.338 334.782C306.267 335.086 309.786 335.381 313.753 335.574C321.989 335.975 339.617 348.775 350.655 357.282C357.54 365.164 367.259 369.995 377.688 370.719H377.856C380.918 372.778 389.002 377.601 400.192 377.429C406.095 377.326 411.896 375.873 417.153 373.181L457.784 372.623C476.592 378.094 491.693 377.522 500.897 376.367C514.124 374.71 519.09 371.399 521.311 369.569C528.987 363.222 531.782 353.337 533.758 343.438C537.816 323.101 531.28 292.036 507.256 271.204Z" fill="#F8F3ED"/>
<path d="M399.618 377.827C389.385 377.827 381.582 373.673 377.747 371.114H377.663C367.146 370.384 357.344 365.517 350.394 357.573C332.153 343.532 319.816 336.249 313.736 335.967C310.214 335.794 306.703 335.528 303.298 335.172C302.108 335.05 300.975 334.598 300.027 333.866C299.079 333.134 298.353 332.152 297.932 331.029C297.503 329.938 297.39 328.747 297.607 327.595C297.824 326.442 298.362 325.374 299.159 324.515L299.217 324.451C304.443 318.755 311.831 315.221 321.181 313.941C329.258 312.837 337.357 313.655 342.854 314.566C343.594 309.95 344.565 305.375 345.765 300.857C348.643 290.063 359.357 279.809 376.746 271.206C393.183 263.082 414.831 256.702 439.354 252.778C442.959 252.158 452.654 250.871 464.736 252.359C481.256 254.39 495.643 260.642 507.505 270.924C518.661 280.652 526.928 293.271 531.4 307.397C535.347 319.737 536.317 332.567 534.131 343.519C532.284 352.773 529.636 363.201 521.552 369.868C517.415 373.28 510.674 375.532 500.943 376.753C486.89 378.515 472.351 377.261 457.734 373.011L417.247 373.567C411.958 376.255 406.13 377.708 400.2 377.816C400.005 377.827 399.81 377.827 399.618 377.827ZM377.957 370.348L378.066 370.414C381.866 372.952 389.791 377.225 400.188 377.06C406.031 376.952 411.774 375.513 416.981 372.853L417.06 372.813L457.848 372.254L457.903 372.27C472.44 376.496 486.895 377.753 500.862 376.001C510.446 374.801 517.061 372.605 521.081 369.287C528.975 362.778 531.577 352.498 533.398 343.375C537.414 323.256 530.865 292.185 507.021 271.505C479.913 247.992 446.009 252.409 439.493 253.534C415.038 257.446 393.464 263.795 377.096 271.894C359.909 280.398 349.332 290.482 346.51 301.058C345.285 305.674 344.299 310.35 343.559 315.069L343.498 315.449L343.118 315.383C331.971 313.482 311.504 312.2 299.797 324.967L299.739 325.03C299.037 325.786 298.563 326.726 298.373 327.74C298.182 328.755 298.282 329.803 298.662 330.763C299.032 331.749 299.669 332.614 300.501 333.259C301.333 333.904 302.328 334.305 303.374 334.416C306.766 334.769 310.262 335.035 313.761 335.205C320.003 335.51 332.49 342.839 350.875 356.992L350.931 357.043C357.746 364.845 367.364 369.63 377.686 370.353L377.957 370.348Z" fill="black"/>
<path d="M342.895 314.614C340.519 307.62 336.901 294.361 336.592 281.828C336.363 272.518 337.433 263.222 339.772 254.209C333.121 240.515 330.267 225.282 331.508 210.103C331.573 209.366 331.825 208.658 332.241 208.047C332.656 207.435 333.221 206.94 333.881 206.609C334.542 206.279 335.276 206.123 336.013 206.156C336.751 206.19 337.467 206.413 338.095 206.803L371.561 227.648C384.015 224.257 397.098 223.893 409.721 226.586L440.074 201.708C440.55 201.316 441.121 201.059 441.728 200.961C442.336 200.863 442.959 200.929 443.533 201.151C444.107 201.373 444.612 201.744 444.996 202.226C445.381 202.708 445.631 203.283 445.721 203.893C448.19 221.119 446.755 238.68 441.523 255.273C443.849 262.413 444.468 270.001 443.332 277.425" fill="#F8F3ED"/>
<path d="M342.536 314.736C341.142 310.636 336.567 296.146 336.202 281.838C335.972 272.54 337.034 263.255 339.359 254.25C332.722 240.528 329.878 225.275 331.12 210.077C331.181 209.275 331.448 208.503 331.896 207.835C332.344 207.168 332.958 206.628 333.676 206.269C334.399 205.901 335.204 205.727 336.014 205.763C336.824 205.799 337.61 206.044 338.297 206.475L371.624 227.234C384.03 223.884 397.052 223.52 409.625 226.173L439.836 201.403C440.363 200.969 440.997 200.682 441.671 200.574C442.346 200.465 443.037 200.538 443.674 200.785C444.311 201.032 444.871 201.444 445.297 201.979C445.723 202.514 445.999 203.153 446.098 203.83C448.571 221.071 447.144 238.649 441.923 255.263C444.234 262.427 444.842 270.033 443.696 277.474L442.936 277.357C444.063 269.992 443.448 262.465 441.14 255.382L441.102 255.266L441.14 255.149C446.355 238.61 447.785 221.105 445.323 203.936C445.242 203.393 445.019 202.881 444.677 202.453C444.335 202.024 443.885 201.694 443.374 201.496C442.863 201.299 442.308 201.241 441.767 201.328C441.226 201.415 440.718 201.644 440.294 201.992L409.8 226.995L409.622 226.957C397.058 224.276 384.036 224.638 371.639 228.013L371.48 228.056L337.874 207.122C337.297 206.761 336.637 206.555 335.958 206.525C335.278 206.495 334.602 206.641 333.996 206.95C333.396 207.249 332.883 207.699 332.508 208.255C332.133 208.812 331.908 209.456 331.855 210.126C330.616 225.24 333.457 240.409 340.081 254.044L340.142 254.171L340.106 254.308C337.776 263.286 336.71 272.546 336.939 281.82C337.292 296.021 341.836 310.42 343.222 314.495L342.536 314.736Z" fill="black"/>
<path d="M169.684 359.675H169.611C169.611 359.675 167.457 359.648 165.446 357.713C163.862 356.19 165.23 349.48 170.006 341.699C174.085 349.605 175.093 356.203 173.593 357.713C171.668 359.665 169.684 359.675 169.684 359.675Z" fill="#4EA7F1"/>
<path d="M169.687 360.056H169.611C169.515 360.056 167.283 360.003 165.187 357.99C163.234 356.113 165.256 348.716 169.692 341.488L170.044 340.915L170.353 341.514C174.153 348.894 175.706 356.121 173.874 357.972C171.86 360.003 169.791 360.046 169.692 360.046L169.687 360.056ZM169.981 342.478C165.319 350.285 164.473 356.251 165.707 357.439C167.589 359.249 169.593 359.294 169.613 359.294H169.682C169.72 359.294 171.554 359.239 173.33 357.446C174.505 356.248 173.963 350.435 169.981 342.478Z" fill="black"/>
<path d="M534.799 330.481C538.551 332.213 544.487 335.663 548.48 342.159C557.706 357.175 550.831 379.162 537.999 390.731C528.686 399.129 517.963 400.449 509.526 401.538C504.581 402.175 481.659 405.036 465.917 390.731C462.732 387.837 455.276 381.056 456.376 372.674C456.946 368.358 459.869 362.598 464.855 360.996C474.408 357.914 480.126 373.732 498.065 375.677C500.649 375.956 511.715 376.84 520.359 369.838C521.775 368.69 524.111 366.538 526.946 361.714C529.859 356.756 534.782 346.48 534.799 330.481Z" fill="#333333"/>
<path d="M499.606 402.571C485.829 402.571 474.003 398.593 465.658 391.012C462.428 388.078 454.863 381.203 455.996 372.622C456.627 367.86 459.831 362.214 464.736 360.625C469.549 359.074 473.296 362.024 478.049 365.753C482.9 369.561 488.943 374.295 498.103 375.291C502.058 375.72 512.118 376.017 520.118 369.533C521.578 368.35 523.84 366.233 526.617 361.513C531.706 352.859 534.404 342.128 534.417 330.481V329.887L534.957 330.141C541.037 332.953 545.708 336.931 548.802 341.963C553.149 349.038 554.241 358.226 551.877 367.832C549.688 376.735 544.72 385.184 538.25 391.02C528.925 399.428 518.307 400.794 509.777 401.893L509.572 401.919C506.267 402.349 502.938 402.567 499.606 402.571ZM467.3 360.975C466.509 360.977 465.723 361.103 464.972 361.351C460.366 362.836 457.351 368.205 456.753 372.721C455.672 380.906 463.029 387.593 466.17 390.449C476.303 399.649 491.676 403.452 509.491 401.16L509.696 401.132C518.122 400.048 528.608 398.697 537.756 390.446C550.17 379.251 557.324 357.256 548.168 342.359C545.247 337.604 540.882 333.811 535.19 331.08C535.086 342.633 532.357 353.278 527.285 361.899C524.448 366.723 522.117 368.906 520.61 370.127C512.389 376.788 502.086 376.474 498.037 376.047C488.664 375.032 482.523 370.208 477.598 366.355C473.836 363.41 470.73 360.975 467.3 360.975Z" fill="#191818"/>
<path d="M417.25 373.511C417.163 373.511 417.08 373.481 417.012 373.427C416.945 373.373 416.898 373.297 416.879 373.212C416.861 373.128 416.872 373.039 416.91 372.962C416.948 372.884 417.012 372.822 417.09 372.785C417.262 372.704 434.454 364.55 438.416 349.176C438.427 349.125 438.447 349.077 438.476 349.034C438.506 348.991 438.543 348.955 438.587 348.928C438.631 348.9 438.68 348.882 438.731 348.874C438.782 348.866 438.834 348.869 438.884 348.882C438.934 348.895 438.981 348.918 439.022 348.95C439.063 348.981 439.097 349.021 439.122 349.066C439.147 349.112 439.162 349.162 439.167 349.213C439.172 349.265 439.167 349.317 439.151 349.366C437.033 357.594 431.232 363.714 426.737 367.39C423.866 369.762 420.737 371.802 417.409 373.47C417.36 373.496 417.305 373.51 417.25 373.511Z" fill="#191818"/>
<path d="M409.734 226.592L440.086 201.713C440.562 201.322 441.133 201.064 441.741 200.966C442.348 200.868 442.971 200.934 443.545 201.156C444.119 201.379 444.624 201.749 445.009 202.231C445.393 202.713 445.643 203.288 445.733 203.898C446.554 209.631 446.779 215.439 446.835 224.462C446.891 233.484 443.724 241.755 441.571 255.337C434.108 242.745 423.006 232.721 409.734 226.592Z" fill="#333333"/>
<path d="M441.78 256.433L441.243 255.532C433.821 243.007 422.778 233.035 409.576 226.937L409.026 226.683L439.847 201.41C440.375 200.976 441.009 200.69 441.683 200.581C442.357 200.473 443.048 200.546 443.685 200.793C444.322 201.039 444.883 201.451 445.309 201.986C445.735 202.521 446.011 203.16 446.11 203.837C446.966 209.816 447.164 215.927 447.217 224.464C447.252 229.991 446.067 235.324 444.684 241.496C443.792 245.512 442.781 250.064 441.935 255.398L441.78 256.433ZM410.442 226.503C423.223 232.538 433.966 242.184 441.35 254.255C442.163 249.338 443.105 245.101 443.941 241.331C445.357 234.951 446.475 229.907 446.444 224.469C446.391 215.965 446.191 209.879 445.345 203.944C445.264 203.401 445.041 202.889 444.699 202.46C444.357 202.032 443.907 201.702 443.396 201.504C442.884 201.306 442.33 201.248 441.789 201.335C441.248 201.422 440.74 201.651 440.316 201.999L410.442 226.503Z" fill="#191818"/>
<path d="M378.743 371.48C378.65 371.481 378.56 371.447 378.489 371.386C377.78 370.767 376.123 369.061 376.088 366.618C376.057 364.468 377.283 362.973 377.686 362.48C379.738 359.975 382.771 359.746 386.285 359.48C388.266 359.33 390.513 359.16 392.831 358.546C396.912 357.464 400.776 355.106 404.312 351.536C404.384 351.469 404.48 351.432 404.578 351.434C404.676 351.436 404.77 351.476 404.84 351.546C404.91 351.615 404.949 351.71 404.951 351.808C404.953 351.907 404.916 352.002 404.849 352.075C401.219 355.74 397.249 358.167 393.023 359.282C390.64 359.914 388.357 360.086 386.343 360.239C382.865 360.493 380.118 360.711 378.274 362.963C377.914 363.402 376.822 364.74 376.848 366.608C376.878 368.741 378.368 370.259 378.991 370.812C379.066 370.879 379.113 370.973 379.119 371.074C379.126 371.175 379.092 371.274 379.026 371.35C378.991 371.391 378.947 371.424 378.899 371.446C378.85 371.468 378.796 371.48 378.743 371.48Z" fill="#191818"/>
<path d="M389.889 293.67C411.296 293.67 428.65 280.372 428.65 263.968C428.65 247.564 411.296 234.266 389.889 234.266C368.482 234.266 351.128 247.564 351.128 263.968C351.128 280.372 368.482 293.67 389.889 293.67Z" fill="#333333"/>
<path d="M389.889 294.051C368.307 294.051 350.749 280.556 350.749 263.968C350.749 247.381 368.307 233.885 389.889 233.885C411.471 233.885 429.03 247.381 429.03 263.968C429.03 280.556 411.471 294.051 389.889 294.051ZM389.889 234.647C368.736 234.647 351.509 247.8 351.509 263.968C351.509 280.137 368.736 293.29 389.889 293.29C411.043 293.29 428.27 280.137 428.27 263.968C428.27 247.8 411.043 234.647 389.889 234.647Z" fill="#191818"/>
<path d="M365.189 270.061C369.596 270.061 373.169 266.48 373.169 262.064C373.169 257.647 369.596 254.067 365.189 254.067C360.781 254.067 357.209 257.647 357.209 262.064C357.209 266.48 360.781 270.061 365.189 270.061Z" fill="#F8F59C"/>
<path d="M365.189 270.441C363.535 270.441 361.919 269.95 360.544 269.03C359.169 268.109 358.098 266.801 357.465 265.27C356.832 263.739 356.667 262.055 356.989 260.429C357.312 258.804 358.108 257.312 359.277 256.14C360.446 254.968 361.936 254.171 363.558 253.847C365.179 253.524 366.86 253.69 368.388 254.324C369.916 254.958 371.221 256.032 372.14 257.41C373.059 258.787 373.549 260.407 373.549 262.064C373.549 264.286 372.668 266.417 371.1 267.988C369.532 269.559 367.406 270.441 365.189 270.441ZM365.189 254.448C363.686 254.448 362.216 254.895 360.966 255.731C359.716 256.568 358.742 257.758 358.167 259.149C357.592 260.541 357.441 262.072 357.735 263.55C358.028 265.027 358.752 266.384 359.815 267.449C360.877 268.514 362.232 269.24 363.706 269.534C365.18 269.827 366.708 269.677 368.097 269.1C369.486 268.524 370.673 267.548 371.508 266.295C372.343 265.043 372.789 263.57 372.789 262.064C372.789 260.044 371.988 258.107 370.563 256.679C369.138 255.25 367.204 254.448 365.189 254.448Z" fill="#191818"/>
<path d="M445.624 204.056C445.624 204.056 427.891 228.173 426.117 233.758C424.79 237.934 430.834 235.865 433.971 234.555C434.106 234.499 434.256 234.485 434.399 234.516C434.543 234.547 434.674 234.62 434.775 234.727C434.876 234.833 434.943 234.968 434.966 235.113C434.989 235.258 434.968 235.407 434.906 235.54L432.803 239.991C432.668 240.276 432.62 240.595 432.664 240.908C432.709 241.221 432.844 241.513 433.053 241.75C433.262 241.986 433.536 242.156 433.841 242.237C434.145 242.319 434.467 242.309 434.766 242.209L437.277 241.372C437.409 241.327 437.552 241.322 437.687 241.356C437.823 241.391 437.945 241.464 438.041 241.566C438.136 241.669 438.199 241.797 438.224 241.935C438.248 242.073 438.233 242.215 438.179 242.344L437.269 246.705L441.576 255.337C446.735 238.762 448.12 221.238 445.629 204.056H445.624Z" fill="#F3D2C9"/>
<path d="M441.651 256.352L436.863 246.756L437.823 242.186C437.849 242.124 437.857 242.056 437.845 241.99C437.833 241.924 437.803 241.862 437.757 241.813C437.711 241.764 437.652 241.729 437.587 241.712C437.522 241.696 437.454 241.698 437.39 241.719L434.88 242.56C434.51 242.684 434.112 242.697 433.735 242.596C433.358 242.495 433.019 242.285 432.76 241.992C432.502 241.699 432.335 241.337 432.281 240.95C432.226 240.563 432.287 240.168 432.455 239.815L434.558 235.365C434.589 235.301 434.599 235.229 434.588 235.16C434.576 235.09 434.544 235.025 434.495 234.974C434.447 234.922 434.384 234.887 434.315 234.872C434.246 234.858 434.174 234.865 434.11 234.893C429.856 236.67 427.148 237.071 426.063 236.076C425.506 235.568 425.402 234.741 425.754 233.631C427.528 228.046 444.593 204.805 445.317 203.817L445.867 203.071L445.999 203.987C448.504 221.226 447.119 238.807 441.945 255.438L441.651 256.352ZM437.664 246.654L441.487 254.316C446.308 238.361 447.636 221.552 445.378 205.036C442.368 209.164 428.037 228.963 426.479 233.872C426.226 234.677 426.256 235.233 426.575 235.528C427.376 236.261 430.081 235.766 433.818 234.202C434.025 234.117 434.253 234.096 434.472 234.143C434.691 234.189 434.891 234.301 435.045 234.464C435.2 234.627 435.301 234.832 435.337 235.054C435.372 235.275 435.34 235.502 435.245 235.705L433.142 240.153C433.039 240.371 433.002 240.614 433.036 240.853C433.069 241.092 433.172 241.315 433.332 241.496C433.491 241.677 433.7 241.806 433.933 241.869C434.165 241.932 434.411 241.925 434.639 241.849L437.15 241.011C437.348 240.944 437.561 240.935 437.765 240.985C437.968 241.035 438.153 241.142 438.298 241.293C438.444 241.444 438.543 241.633 438.586 241.838C438.628 242.043 438.612 242.257 438.538 242.453L437.664 246.654Z" fill="black"/>
<path d="M371.396 227.665C360.284 220.763 348.76 213.423 337.649 206.521C335.351 205.094 331.655 206.932 331.622 209.641C331.553 215.432 330.608 221.852 332.382 230.712C333.337 235.494 333.762 237.967 334.728 241.247C336.024 245.657 337.697 249.946 339.729 254.067C341.035 251.487 342.561 249.024 344.289 246.705C345.745 244.748 351.017 237.967 360.502 232.489C363.953 230.499 367.605 228.882 371.396 227.665Z" fill="#333333"/>
<path d="M339.723 254.918L339.389 254.235C337.349 250.094 335.668 245.785 334.363 241.356C333.55 238.592 333.096 236.347 332.437 232.953C332.306 232.283 332.164 231.565 332.009 230.785C330.639 223.931 330.884 218.516 331.1 213.748C331.166 212.316 331.226 210.956 331.242 209.636C331.257 208.316 332.09 207.026 333.471 206.267C334.94 205.457 336.618 205.432 337.849 206.198C343.404 209.646 349.155 213.266 354.719 216.767C360.282 220.268 366.038 223.89 371.596 227.343L372.295 227.777L371.512 228.031C367.747 229.24 364.12 230.845 360.692 232.821C352.162 237.749 346.944 243.778 344.593 246.936C342.879 249.238 341.366 251.682 340.068 254.242L339.723 254.918ZM335.82 206.409C335.126 206.415 334.444 206.596 333.838 206.935C332.701 207.559 332.014 208.572 332.002 209.646C331.987 210.986 331.923 212.344 331.86 213.781C331.644 218.508 331.401 223.862 332.754 230.638C332.909 231.417 333.051 232.133 333.185 232.806C333.871 236.299 334.287 238.411 335.092 241.14C336.313 245.286 337.867 249.325 339.739 253.219C340.977 250.865 342.397 248.61 343.985 246.477C346.371 243.273 351.663 237.155 360.312 232.159C363.552 230.292 366.967 228.752 370.509 227.559C365.164 224.235 359.654 220.768 354.318 217.404C348.745 213.903 343.007 210.296 337.454 206.836C336.959 206.544 336.393 206.397 335.82 206.409Z" fill="#191818"/>
<path d="M331.621 209.133C331.621 209.133 350.718 225.873 353.082 230.257C353.221 230.511 353.814 231.684 353.375 232.215C352.539 233.23 348.965 230.671 347.328 231.981C347.162 232.116 347.023 232.282 346.918 232.468C346.734 232.815 346.653 233.207 346.687 233.598C346.721 233.989 346.867 234.362 347.108 234.672C347.655 235.401 348.375 236.568 348.306 237.678C348.306 238.008 348.204 238.329 348.015 238.599C347.526 239.198 346.616 239.203 346.366 239.203C344.706 239.203 343.809 237.602 343.769 237.528C343.552 237.353 343.281 237.26 343.003 237.266C342.725 237.272 342.457 237.376 342.249 237.561C342.117 237.7 342.033 237.878 342.011 238.069C341.952 238.508 342.024 238.955 342.218 239.353C342.768 240.468 342.125 244.062 341.75 245.682C341.184 248.099 340.243 250.411 338.963 252.536C336.683 247.545 333.605 239.589 332.123 229.942C331.318 224.674 331.022 219.34 331.239 214.015C331.335 212.027 331.495 210.352 331.621 209.133Z" fill="#F3D2C9"/>
<path d="M338.969 252.925H338.948C338.879 252.921 338.812 252.898 338.755 252.859C338.698 252.819 338.652 252.765 338.624 252.701C335.301 245.49 332.987 237.853 331.748 230.008C330.94 224.718 330.642 219.362 330.859 214.015C330.935 212.377 331.062 210.714 331.239 209.1C331.245 209.03 331.271 208.963 331.312 208.906C331.354 208.85 331.411 208.806 331.476 208.78C331.541 208.754 331.612 208.746 331.681 208.757C331.75 208.769 331.815 208.8 331.868 208.846C332.648 209.531 351.043 225.682 353.401 230.077C353.655 230.564 354.217 231.778 353.655 232.458C353.092 233.138 352.066 232.798 350.853 232.44C349.639 232.082 348.289 231.679 347.559 232.278C347.431 232.382 347.323 232.511 347.243 232.656C347.096 232.936 347.033 233.253 347.062 233.569C347.091 233.884 347.21 234.184 347.405 234.433C348.02 235.253 348.74 236.487 348.672 237.688C348.667 238.098 348.535 238.498 348.294 238.83C347.894 239.32 347.24 239.571 346.353 239.574C344.649 239.574 343.676 238.117 343.468 237.769C343.324 237.675 343.153 237.629 342.981 237.639C342.809 237.649 342.645 237.714 342.513 237.825C342.44 237.91 342.395 238.015 342.384 238.127C342.338 238.488 342.399 238.855 342.558 239.183C343.275 240.635 342.239 245.245 342.118 245.766C341.543 248.221 340.588 250.57 339.288 252.729C339.256 252.786 339.21 252.834 339.154 252.869C339.098 252.903 339.034 252.922 338.969 252.925ZM331.923 209.905C331.786 211.278 331.688 212.667 331.624 214.04C331.407 219.34 331.701 224.648 332.503 229.891C333.689 237.428 335.878 244.771 339.012 251.724C340.087 249.81 340.886 247.754 341.386 245.616C341.834 243.679 342.338 240.46 341.892 239.541C341.656 239.071 341.567 238.539 341.639 238.018C341.673 237.743 341.796 237.487 341.988 237.289C342.266 237.041 342.622 236.901 342.994 236.893C343.365 236.885 343.728 237.01 344.015 237.246C344.05 237.274 344.079 237.309 344.099 237.35C344.099 237.365 344.912 238.825 346.356 238.825C347.005 238.825 347.461 238.668 347.711 238.36C347.848 238.153 347.92 237.909 347.917 237.66C347.967 236.687 347.334 235.629 346.794 234.903C346.508 234.534 346.335 234.09 346.297 233.625C346.259 233.16 346.357 232.693 346.579 232.283C346.709 232.054 346.881 231.851 347.086 231.686C348.132 230.848 349.695 231.308 351.073 231.714C351.869 231.948 352.847 232.237 353.08 231.968C353.249 231.762 353.105 231.105 352.743 230.445C350.668 226.578 335.072 212.689 331.923 209.905Z" fill="black"/>
<path d="M365.189 267.776C368.337 267.776 370.889 265.219 370.889 262.064C370.889 258.91 368.337 256.352 365.189 256.352C362.041 256.352 359.489 258.91 359.489 262.064C359.489 265.219 362.041 267.776 365.189 267.776Z" fill="black"/>
<path d="M365.189 268.157C363.987 268.157 362.811 267.8 361.811 267.13C360.811 266.461 360.032 265.509 359.572 264.396C359.112 263.282 358.991 262.057 359.226 260.876C359.46 259.694 360.04 258.608 360.89 257.756C361.74 256.904 362.824 256.324 364.003 256.089C365.182 255.853 366.405 255.974 367.516 256.435C368.627 256.896 369.576 257.677 370.245 258.679C370.913 259.681 371.269 260.859 371.269 262.064C371.269 263.68 370.629 265.23 369.488 266.372C368.348 267.515 366.802 268.157 365.189 268.157ZM365.189 256.733C364.137 256.733 363.108 257.046 362.233 257.631C361.359 258.217 360.677 259.05 360.274 260.024C359.871 260.998 359.766 262.07 359.971 263.104C360.177 264.138 360.683 265.088 361.427 265.834C362.171 266.579 363.119 267.087 364.151 267.293C365.183 267.499 366.253 267.393 367.225 266.99C368.197 266.586 369.028 265.903 369.613 265.026C370.197 264.149 370.509 263.119 370.509 262.064C370.509 260.65 369.949 259.294 368.951 258.294C367.953 257.295 366.6 256.733 365.189 256.733Z" fill="#191818"/>
<path d="M416.363 270.061C420.771 270.061 424.343 266.48 424.343 262.064C424.343 257.647 420.771 254.067 416.363 254.067C411.956 254.067 408.383 257.647 408.383 262.064C408.383 266.48 411.956 270.061 416.363 270.061Z" fill="#F8F59C"/>
<path d="M416.363 270.441C414.71 270.441 413.094 269.95 411.719 269.03C410.344 268.109 409.272 266.801 408.64 265.27C408.007 263.739 407.841 262.055 408.164 260.429C408.486 258.804 409.283 257.312 410.452 256.14C411.621 254.968 413.111 254.171 414.732 253.847C416.354 253.524 418.035 253.69 419.563 254.324C421.09 254.958 422.396 256.032 423.315 257.41C424.233 258.787 424.724 260.407 424.724 262.064C424.724 264.286 423.843 266.417 422.275 267.988C420.707 269.559 418.581 270.441 416.363 270.441ZM416.363 254.448C414.86 254.448 413.391 254.895 412.141 255.731C410.891 256.568 409.917 257.758 409.342 259.149C408.766 260.541 408.616 262.072 408.909 263.55C409.202 265.027 409.926 266.384 410.989 267.449C412.052 268.514 413.406 269.24 414.881 269.534C416.355 269.827 417.883 269.677 419.272 269.1C420.661 268.524 421.848 267.548 422.683 266.295C423.518 265.043 423.963 263.57 423.963 262.064C423.963 260.044 423.163 258.107 421.737 256.679C420.312 255.25 418.379 254.448 416.363 254.448Z" fill="#191818"/>
<path d="M416.364 267.776C419.512 267.776 422.064 265.219 422.064 262.064C422.064 258.91 419.512 256.352 416.364 256.352C413.215 256.352 410.663 258.91 410.663 262.064C410.663 265.219 413.215 267.776 416.364 267.776Z" fill="black"/>
<path d="M416.363 268.157C415.161 268.157 413.985 267.8 412.985 267.13C411.986 266.461 411.206 265.509 410.746 264.396C410.286 263.282 410.165 262.057 410.4 260.876C410.635 259.694 411.214 258.608 412.064 257.756C412.914 256.904 413.998 256.324 415.177 256.089C416.357 255.853 417.579 255.974 418.69 256.435C419.801 256.896 420.751 257.677 421.419 258.679C422.087 259.681 422.443 260.859 422.443 262.064C422.443 263.68 421.803 265.23 420.663 266.372C419.522 267.515 417.976 268.157 416.363 268.157ZM416.363 256.733C415.311 256.733 414.283 257.046 413.408 257.631C412.533 258.217 411.851 259.05 411.448 260.024C411.046 260.998 410.94 262.07 411.145 263.104C411.351 264.138 411.857 265.088 412.601 265.834C413.345 266.579 414.293 267.087 415.325 267.293C416.357 267.499 417.427 267.393 418.399 266.99C419.371 266.586 420.202 265.903 420.787 265.026C421.371 264.149 421.683 263.119 421.683 262.064C421.683 260.65 421.123 259.294 420.125 258.294C419.128 257.295 417.774 256.733 416.363 256.733Z" fill="#191818"/>
<path d="M388.055 263.62L390.649 263.968L393.028 263.628C393.131 263.613 393.236 263.628 393.33 263.671C393.425 263.714 393.505 263.783 393.561 263.871C393.618 263.958 393.648 264.06 393.648 264.164C393.648 264.268 393.619 264.37 393.563 264.458L391.26 268.083C391.192 268.186 391.099 268.27 390.991 268.33C390.883 268.389 390.763 268.421 390.639 268.423C390.516 268.425 390.395 268.397 390.285 268.341C390.175 268.285 390.08 268.204 390.008 268.103L387.533 264.466C387.475 264.378 387.443 264.276 387.441 264.172C387.439 264.067 387.467 263.964 387.522 263.874C387.577 263.785 387.657 263.714 387.751 263.669C387.846 263.624 387.951 263.607 388.055 263.62Z" fill="#F3D2C9"/>
<path d="M390.626 268.812C390.441 268.811 390.259 268.764 390.097 268.675C389.934 268.587 389.796 268.459 389.694 268.304L387.219 264.669C387.119 264.521 387.063 264.348 387.059 264.169C387.055 263.991 387.102 263.815 387.196 263.663C387.289 263.511 387.425 263.389 387.586 263.313C387.747 263.236 387.927 263.208 388.103 263.232L390.637 263.572L392.965 263.237C393.139 263.213 393.317 263.239 393.477 263.312C393.637 263.386 393.773 263.504 393.869 263.652C393.964 263.8 394.015 263.973 394.016 264.149C394.017 264.326 393.968 264.499 393.874 264.648L391.571 268.274C391.471 268.432 391.334 268.563 391.17 268.655C391.007 268.747 390.824 268.796 390.637 268.799L390.626 268.812ZM387.979 263.988C387.952 263.988 387.925 263.995 387.901 264.009C387.878 264.023 387.858 264.043 387.845 264.067C387.827 264.093 387.817 264.124 387.817 264.156C387.817 264.188 387.827 264.219 387.845 264.245L390.32 267.88C390.355 267.93 390.402 267.971 390.456 267.999C390.51 268.027 390.57 268.042 390.632 268.043C390.693 268.042 390.753 268.026 390.807 267.996C390.861 267.966 390.906 267.922 390.938 267.87L393.238 264.245C393.257 264.219 393.267 264.189 393.267 264.157C393.267 264.126 393.257 264.095 393.238 264.07C393.222 264.043 393.198 264.021 393.17 264.008C393.141 263.995 393.11 263.991 393.079 263.996L390.649 264.344L388.002 263.991L387.979 263.988Z" fill="black"/>
<path d="M386.864 272.768C386.611 272.768 386.335 272.752 386.051 272.724C385.95 272.714 385.858 272.665 385.794 272.586C385.729 272.507 385.699 272.407 385.709 272.306C385.719 272.205 385.769 272.112 385.847 272.047C385.926 271.983 386.026 271.953 386.127 271.963C387.612 272.11 388.701 271.831 389.36 271.13C390.325 270.115 390.084 268.503 390.082 268.485C390.066 268.384 390.092 268.281 390.152 268.199C390.212 268.116 390.303 268.061 390.404 268.046C390.504 268.03 390.607 268.056 390.689 268.116C390.772 268.176 390.826 268.267 390.842 268.368C390.842 268.447 391.141 270.361 389.922 271.653C389.218 272.397 388.194 272.768 386.864 272.768Z" fill="black"/>
<path d="M394.272 273.021C392.942 273.021 391.921 272.65 391.232 271.912C390.013 270.62 390.3 268.705 390.312 268.627C390.328 268.526 390.383 268.435 390.465 268.374C390.547 268.314 390.65 268.289 390.751 268.304C390.851 268.32 390.942 268.375 391.002 268.457C391.063 268.539 391.088 268.642 391.072 268.743C391.072 268.771 390.839 270.381 391.797 271.394C392.458 272.092 393.542 272.369 395.027 272.221C395.128 272.211 395.228 272.242 395.307 272.306C395.385 272.37 395.435 272.463 395.445 272.564C395.455 272.665 395.425 272.766 395.361 272.845C395.296 272.923 395.204 272.973 395.103 272.983C394.804 273.006 394.533 273.021 394.272 273.021Z" fill="black"/>
<path d="M443.597 264.73L461.458 259.271L443.597 264.73Z" fill="#F8F3ED"/>
<path d="M443.597 265.111C443.506 265.11 443.419 265.077 443.351 265.017C443.283 264.958 443.238 264.876 443.224 264.786C443.211 264.697 443.23 264.605 443.278 264.528C443.325 264.451 443.399 264.394 443.485 264.367L461.346 258.909C461.439 258.887 461.538 258.902 461.621 258.95C461.704 258.998 461.766 259.076 461.794 259.168C461.823 259.26 461.815 259.359 461.773 259.446C461.731 259.532 461.658 259.6 461.569 259.635L443.708 265.093C443.672 265.105 443.635 265.111 443.597 265.111Z" fill="black"/>
<path d="M444.231 268.665L461.078 271.33L444.231 268.665Z" fill="#F8F3ED"/>
<path d="M461.078 271.711H461.02L444.172 269.045C444.072 269.03 443.981 268.975 443.921 268.893C443.86 268.81 443.835 268.707 443.851 268.606C443.866 268.505 443.921 268.414 444.003 268.354C444.085 268.294 444.188 268.268 444.289 268.284L461.136 270.949C461.237 270.957 461.33 271.005 461.396 271.082C461.462 271.158 461.495 271.258 461.487 271.359C461.479 271.46 461.432 271.554 461.355 271.62C461.278 271.686 461.179 271.719 461.078 271.711Z" fill="black"/>
<path d="M337.068 268.665L321.741 272.092L337.068 268.665Z" fill="#F8F3ED"/>
<path d="M321.741 272.473C321.64 272.484 321.539 272.454 321.46 272.391C321.381 272.327 321.331 272.235 321.319 272.134C321.308 272.033 321.338 271.932 321.401 271.852C321.465 271.773 321.557 271.722 321.658 271.711L336.985 268.284C337.08 268.269 337.178 268.291 337.257 268.345C337.337 268.399 337.394 268.482 337.415 268.576C337.436 268.67 337.421 268.769 337.372 268.853C337.323 268.936 337.244 268.998 337.152 269.025L321.825 272.453C321.798 272.463 321.77 272.47 321.741 272.473Z" fill="black"/>
<path d="M337.701 264.476L320.854 261.81L337.701 264.476Z" fill="#F8F3ED"/>
<path d="M337.701 264.857H337.643L320.796 262.191C320.746 262.183 320.698 262.166 320.655 262.14C320.612 262.114 320.574 262.079 320.544 262.038C320.514 261.997 320.493 261.951 320.481 261.902C320.469 261.853 320.467 261.802 320.474 261.752C320.482 261.702 320.499 261.654 320.525 261.611C320.552 261.567 320.586 261.53 320.627 261.5C320.667 261.47 320.714 261.448 320.763 261.436C320.812 261.424 320.863 261.422 320.912 261.429L337.76 264.095C337.86 264.103 337.954 264.15 338.02 264.227C338.086 264.304 338.118 264.404 338.11 264.505C338.103 264.606 338.055 264.7 337.979 264.766C337.902 264.832 337.802 264.864 337.701 264.857Z" fill="black"/>
<path d="M148.024 113.045C159.316 118.216 172.167 129.828 187.472 144.646C210.979 167.408 225.675 204.16 230.286 218.013C228.824 218.694 222.628 207.178 221.166 207.859C216.284 194.47 206.657 172.61 185.952 151.247C169.029 133.786 154.284 120.867 142.377 115.198L148.024 113.045Z" fill="#8BB174"/>
<path d="M230.141 218.432C229.24 218.432 227.968 216.772 225.417 213.162C224.023 211.192 221.921 208.217 221.308 208.217L220.933 208.389L220.814 207.993C212.859 186.161 201.367 167.7 185.683 151.516C166.936 132.163 153.114 120.734 142.22 115.545L141.415 115.165L148.042 112.626L148.189 112.692C159.004 117.647 171.341 128.487 187.74 144.367C197.96 154.268 207.569 167.76 216.307 184.49C224.332 199.882 229.009 212.979 230.646 217.891L230.755 218.214L230.445 218.356C230.351 218.404 230.247 218.43 230.141 218.432ZM221.422 207.457C222.318 207.589 223.588 209.257 226.035 212.72C227.175 214.337 228.789 216.622 229.673 217.384C227.139 209.955 212.484 169.403 187.208 144.915C170.939 129.17 158.695 118.401 148.011 113.461L143.335 115.238C154.188 120.633 167.85 132.024 186.225 150.98C201.92 167.179 213.439 185.65 221.422 207.457Z" fill="black"/>
<path d="M210.791 226.31C191.872 210.316 165.378 190.898 156.541 187.496C133.797 178.738 113.606 174.917 100.531 174.788C101.936 173.342 103.344 171.899 104.754 170.457C117.168 170.401 135.056 173.856 155.168 180.865C163.235 183.681 194.112 203.835 216.223 224.187L210.791 226.31Z" fill="#8BB174"/>
<path d="M210.72 226.746L210.545 226.602C192.171 211.057 165.416 191.314 156.404 187.851C136.17 180.065 115.27 175.313 100.525 175.168H99.6361L104.591 170.091H105.042C117.963 170.091 136.254 173.884 155.279 180.522C163.217 183.292 193.787 203.05 216.463 223.933L216.912 224.347L210.72 226.746ZM101.42 174.419C116.189 174.734 136.75 179.469 156.691 187.141C165.745 190.626 192.46 210.314 210.877 225.873L215.513 224.055C193.323 203.746 162.677 183.889 155.041 181.226C136.097 174.625 117.902 170.837 105.055 170.837H104.926L101.42 174.419Z" fill="black"/>
<path d="M230.549 218.475C226.05 212.408 215.46 193.815 209.289 187.816C196.965 175.861 182.701 166.093 167.108 158.931L161.456 161.074C178.748 169.336 194.428 180.627 207.759 194.414C212.243 199.057 221.551 216.188 225.092 220.816L230.549 218.475Z" fill="#8BB174"/>
<path d="M224.971 221.288L224.791 221.055C223.37 219.194 221.097 215.452 218.458 211.121C214.561 204.711 210.148 197.445 207.478 194.68C194.188 180.918 178.543 169.655 161.287 161.424L160.491 161.025L167.121 158.512L167.268 158.578C182.905 165.753 197.206 175.549 209.555 187.544C213.642 191.515 219.674 200.999 224.52 208.615C227.096 212.677 229.333 216.168 230.854 218.237L231.142 218.622L224.971 221.288ZM162.422 161.122C179.443 169.359 194.88 180.541 208.023 194.155C210.751 196.98 215.19 204.284 219.104 210.73C221.513 214.693 223.793 218.445 225.209 220.359L229.949 218.328C228.416 216.206 226.298 212.872 223.869 209.049C219.043 201.459 213.039 192.012 209.016 188.103C196.77 176.205 182.593 166.48 167.093 159.345L162.422 161.122Z" fill="black"/>
<path d="M396.73 357.644L405.343 376.938C401.044 377.427 396.699 377.342 392.423 376.684C392.423 376.684 385.028 375.823 380.113 372.114C376.698 369.545 376.536 367.735 376.493 367.194C376.295 364.722 377.922 362.973 378.552 362.371L378.743 362.198C381.023 360.203 385.076 359.931 385.329 359.914C387.924 359.754 391.508 359.081 396.73 357.644Z" fill="#333333"/>
<path d="M399.802 377.631C397.312 377.633 394.825 377.442 392.364 377.06C392.073 377.027 384.825 376.149 379.885 372.432C377.516 370.655 376.247 368.903 376.115 367.238C375.915 364.755 377.382 362.96 378.291 362.11L378.491 361.927C380.741 359.952 384.572 359.599 385.301 359.548C388.042 359.363 391.746 358.619 396.628 357.264L396.942 357.177L405.903 377.233L405.396 377.291C403.539 377.508 401.672 377.622 399.802 377.631ZM396.509 358.099C391.731 359.399 388.078 360.13 385.347 360.31C384.916 360.338 381.093 360.648 378.985 362.501C378.907 362.569 378.836 362.635 378.813 362.658C378.008 363.42 376.69 365.012 376.865 367.177C376.979 368.614 378.147 370.178 380.333 371.823C385.106 375.412 392.385 376.298 392.458 376.306C396.534 376.933 400.673 377.037 404.775 376.616L396.509 358.099Z" fill="#191818"/>
<path d="M319.152 336.759L326.808 313.979C321.608 313.903 316.443 314.852 311.608 316.772C308.127 318.228 304.882 320.196 301.981 322.611C301.727 322.827 298.181 325.881 298.054 328.823C298.054 328.983 298.054 329.133 298.054 329.143C298.112 331.623 299.911 333.205 300.603 333.712L300.81 333.865C302.931 335.368 305.517 335.2 309.33 335.294C311.481 335.347 312.555 335.375 313.89 335.548C315.678 335.785 317.44 336.19 319.152 336.759Z" fill="#333333"/>
<path d="M319.152 337.142C319.111 337.142 319.071 337.135 319.033 337.122C317.343 336.563 315.604 336.166 313.839 335.936C312.522 335.764 311.45 335.738 309.317 335.683C308.838 335.683 308.377 335.662 307.934 335.655C304.8 335.604 302.535 335.566 300.587 334.185L300.369 334.022C299.389 333.261 297.732 331.641 297.671 329.151C297.671 329.151 297.671 328.98 297.671 328.803C297.808 325.721 301.332 322.657 301.725 322.317C304.669 319.88 307.957 317.892 311.481 316.417C316.362 314.482 321.574 313.524 326.823 313.599C326.883 313.599 326.943 313.614 326.996 313.643C327.05 313.671 327.096 313.712 327.131 313.761C327.165 313.811 327.188 313.868 327.196 313.928C327.204 313.988 327.198 314.049 327.177 314.106L319.522 336.886C319.495 336.962 319.445 337.029 319.379 337.075C319.312 337.121 319.233 337.145 319.152 337.142ZM326.245 314.355C321.28 314.355 316.359 315.295 311.742 317.125C308.302 318.571 305.094 320.518 302.221 322.903C302.072 323.03 298.55 326.033 298.421 328.838C298.421 328.978 298.421 329.11 298.421 329.128C298.474 331.306 299.941 332.753 300.82 333.421L301.015 333.565C302.773 334.809 304.939 334.835 307.936 334.896C308.382 334.896 308.843 334.911 309.327 334.923C311.486 334.977 312.57 335.005 313.925 335.177C315.613 335.398 317.278 335.766 318.901 336.279L326.271 314.353L326.245 314.355Z" fill="#191818"/>
<path d="M95.9653 97.9373L88.8591 94.0532C87.0873 93.0847 85.6414 91.6121 84.7036 89.8212C83.7658 88.0303 83.3782 86.0013 83.5897 83.99L84.185 78.3516C84.4232 76.0916 85.1485 73.9105 86.3107 71.959C87.4729 70.0076 89.0444 68.3324 90.9163 67.0495C92.0018 66.3059 93.2638 65.8623 94.575 65.7633C95.8862 65.6644 97.2003 65.9136 98.3847 66.4859C99.0682 66.8047 99.7684 67.0861 100.482 67.3288C108.735 70.2517 116.242 74.9648 122.467 81.1314L111.454 101.144L95.9653 97.9373Z" fill="#9665FF"/>
<path d="M111.65 101.573L95.8338 98.2981L95.7831 98.2702L88.6769 94.3886C86.8385 93.3852 85.3388 91.8575 84.3678 89.9991C83.3967 88.1407 82.9982 86.0353 83.2225 83.9496L83.8179 78.3113C84.0604 75.9962 84.8025 73.7617 85.9929 71.7627C87.1832 69.7638 88.7932 68.0482 90.7112 66.735C91.8533 65.9544 93.1804 65.4888 94.5589 65.385C95.9375 65.2812 97.319 65.5428 98.5647 66.1435C99.2362 66.4557 99.9237 66.732 100.624 66.9711C108.93 69.91 116.483 74.6539 122.743 80.8626L122.949 81.0632L111.65 101.573ZM96.0972 97.5746L111.257 100.715L121.996 81.2003C115.852 75.1691 108.466 70.5578 100.356 67.6895C99.6292 67.4457 98.9163 67.1627 98.2202 66.8416C97.0951 66.2984 95.8471 66.0619 94.6018 66.156C93.3564 66.25 92.1578 66.6713 91.1267 67.3773C89.2989 68.6278 87.7646 70.262 86.6303 72.1663C85.4959 74.0707 84.7887 76.1995 84.5576 78.4052L83.9623 84.0436C83.7545 85.98 84.1251 87.9346 85.0271 89.6597C85.9291 91.3848 87.322 92.8027 89.0291 93.7336L96.0972 97.5746Z" fill="black"/>
<path d="M102.661 91.2127L102.487 91.2253C100.26 91.388 98.1446 92.2664 96.4558 93.73C94.767 95.1936 93.5946 97.1643 93.113 99.349L92.434 102.426C91.7309 105.613 92.195 108.947 93.7414 111.819C95.2879 114.691 97.8136 116.911 100.858 118.072L121.755 126.043L124.973 103.144L110.533 93.3223C108.221 91.75 105.447 91.0066 102.661 91.2127Z" fill="#9665FF"/>
<path d="M122.067 126.569L100.724 118.43C97.5941 117.236 94.9973 114.955 93.4071 112.002C91.817 109.049 91.3395 105.621 92.0619 102.345L92.7408 99.2704C93.2311 97.0008 94.4439 94.9522 96.1966 93.4331C97.9493 91.9139 100.147 91.0064 102.459 90.8471L102.634 90.8345C105.503 90.63 108.357 91.3961 110.741 93.0101L125.378 102.967L122.067 126.569ZM102.689 91.5935L102.515 91.6062C100.366 91.7539 98.3231 92.5974 96.6941 94.0094C95.0652 95.4215 93.9383 97.3258 93.4831 99.4354L92.8042 102.51C92.1367 105.606 92.5949 108.84 94.0961 111.628C95.5973 114.416 98.0429 116.575 100.992 117.716L121.447 125.518L124.563 103.332L110.33 93.6422C108.088 92.1227 105.402 91.4013 102.702 91.5935H102.689Z" fill="black"/>
<path d="M139.717 77.2038L131.577 66.3917C130.024 64.3254 127.915 62.7451 125.499 61.8357C123.082 60.9262 120.456 60.7251 117.93 61.256L115.262 61.817C113.972 62.0863 112.768 62.671 111.757 63.5191C110.747 64.3672 109.961 65.4525 109.47 66.6783C108.979 67.9041 108.798 69.2325 108.943 70.5453C109.089 71.8581 109.555 73.1146 110.302 74.2031L117.142 83.9262L138.577 91.697L139.717 77.2038Z" fill="#9665FF"/>
<path d="M138.916 92.228L116.901 84.2465L109.99 74.4244C109.211 73.2845 108.724 71.9693 108.574 70.5957C108.423 69.2221 108.613 67.8325 109.127 66.5503C109.641 65.268 110.463 64.1327 111.52 63.2451C112.577 62.3575 113.836 61.745 115.186 61.4621L117.856 60.9036C120.448 60.3658 123.14 60.5744 125.618 61.5053C128.097 62.4361 130.262 64.0512 131.863 66.1637L140.089 77.0799L140.077 77.2246L138.916 92.228ZM117.383 83.6118L138.235 91.172L139.314 77.3312L131.263 66.6333C129.749 64.6333 127.7 63.1038 125.354 62.2215C123.009 61.3391 120.462 61.1401 118.008 61.6474L115.338 62.2084C114.111 62.4657 112.967 63.0223 112.006 63.8289C111.045 64.6356 110.298 65.6673 109.83 66.8326C109.363 67.998 109.189 69.2609 109.326 70.5095C109.462 71.758 109.903 72.9537 110.611 73.9903L117.383 83.6118Z" fill="black"/>
<path d="M122.103 112.108C131.215 112.108 138.603 104.705 138.603 95.5738C138.603 86.4422 131.215 79.0396 122.103 79.0396C112.99 79.0396 105.603 86.4422 105.603 95.5738C105.603 104.705 112.99 112.108 122.103 112.108Z" fill="#F8F59C"/>
<path d="M122.095 112.482C119.349 112.481 116.645 111.808 114.217 110.523C111.789 109.237 109.71 107.378 108.162 105.105C106.614 102.832 105.642 100.216 105.332 97.4816C105.021 94.7476 105.381 91.979 106.38 89.4159C107.379 86.8528 108.987 84.5727 111.065 82.7733C113.142 80.974 115.627 79.7098 118.302 79.0905C120.978 78.4711 123.764 78.5153 126.418 79.2192C129.073 79.923 131.516 81.2653 133.536 83.1296C136.036 85.4357 137.783 88.4445 138.549 91.7622C139.314 95.0799 139.062 98.5519 137.826 101.724C136.59 104.896 134.426 107.62 131.62 109.539C128.813 111.459 125.493 112.484 122.095 112.482ZM122.107 79.4282C118.351 79.4297 114.713 80.7462 111.823 83.1503C108.933 85.5543 106.971 88.8948 106.278 92.5942C105.585 96.2937 106.203 100.12 108.026 103.411C109.849 106.702 112.763 109.251 116.263 110.618C119.763 111.985 123.629 112.083 127.194 110.896C130.758 109.71 133.797 107.312 135.785 104.118C137.773 100.924 138.585 97.1349 138.08 93.4049C137.575 89.6749 135.786 86.2388 133.021 83.6906C130.048 80.944 126.151 79.4219 122.107 79.4282Z" fill="#191818"/>
<path d="M125.872 77.1995L125.067 83.4014C124.745 85.8665 125.333 88.2046 126.713 89.9562L137.774 103.99L144.26 120.946C145.599 118.653 146.746 116.252 147.687 113.769C147.687 113.769 150.135 106.869 149.853 99.1436C149.347 84.8053 139.251 73.3991 137.564 71.5383C136.845 70.6671 135.869 70.0452 134.777 69.7613C132.669 69.2535 130.919 70.3731 130.009 70.9519C126.974 72.8838 126.098 76.1967 125.872 77.1995Z" fill="#9665FF"/>
<path d="M144.181 121.803L137.437 104.18L126.415 90.197C124.966 88.359 124.355 85.9295 124.689 83.3426L125.503 77.1077C125.867 75.4753 126.914 72.4645 129.809 70.6214C130.716 70.0451 132.596 68.8443 134.876 69.3825C136.048 69.6826 137.094 70.3486 137.863 71.284C140.637 74.3431 149.75 85.4167 150.244 99.1203C150.522 106.833 148.08 113.817 148.057 113.888C147.103 116.396 145.945 118.821 144.594 121.138L144.181 121.803ZM126.247 77.265L125.442 83.4492C125.135 85.8178 125.695 88.0442 127.01 89.7197L138.109 103.799L138.129 103.852L144.331 120.064C145.483 117.994 146.486 115.844 147.333 113.631C147.356 113.57 149.747 106.716 149.474 99.1609C148.987 85.7061 140.019 74.8178 137.283 71.7993C136.615 70.9856 135.707 70.4051 134.689 70.1416C132.738 69.6745 131.094 70.7204 130.212 71.2814C127.557 72.9595 126.589 75.7444 126.247 77.265Z" fill="black"/>
<path d="M121.476 126.076L108.962 120.28C106.399 119.089 104.405 116.937 103.41 114.288C102.415 111.638 102.498 108.703 103.641 106.114L106.243 100.23C107.697 96.944 110.338 94.3318 113.636 92.9188C116.933 91.5057 120.643 91.3968 124.017 92.6138L139.01 98.0339C142.003 99.1184 144.53 101.204 146.168 103.938C147.805 106.672 148.452 109.889 147.999 113.045C147.321 116.275 145.788 119.263 143.563 121.697C137.802 127.878 129.601 127.536 128.142 127.465C125.86 127.363 123.609 126.894 121.476 126.076Z" fill="#9665FF"/>
<path d="M129.077 127.871C128.728 127.871 128.411 127.871 128.135 127.853C125.809 127.749 123.516 127.269 121.343 126.431H121.317L108.81 120.625C106.164 119.384 104.106 117.156 103.076 114.417C102.046 111.677 102.124 108.642 103.295 105.96L105.894 100.075C107.395 96.7076 110.108 94.0318 113.492 92.5826C116.876 91.1334 120.682 91.0176 124.147 92.2584L139.14 97.6785C142.211 98.7998 144.805 100.944 146.488 103.752C148.171 106.56 148.84 109.862 148.384 113.106V113.134C147.692 116.432 146.127 119.483 143.852 121.966C139.028 127.127 132.459 127.871 129.077 127.871ZM121.616 125.738C123.711 126.542 125.92 127.003 128.16 127.104C131.01 127.226 138.192 126.921 143.285 121.458C145.462 119.079 146.961 116.156 147.624 112.997C148.053 109.929 147.418 106.806 145.826 104.151C144.233 101.496 141.779 99.4692 138.874 98.4096L123.881 92.987C120.597 91.811 116.991 91.9207 113.784 93.2941C110.577 94.6675 108.005 97.2035 106.583 100.395L103.981 106.282C102.891 108.781 102.818 111.609 103.779 114.161C104.739 116.713 106.656 118.789 109.122 119.945L121.616 125.738Z" fill="black"/>
<path d="M77.7708 147.177L76.7321 143.585C76.0779 141.321 76.2326 138.9 77.1696 136.738C78.1066 134.577 79.7672 132.81 81.8648 131.745C83.7429 130.792 85.8485 130.383 87.9457 130.562C90.0429 130.742 92.0489 131.503 93.7388 132.76C96.9283 133.831 111.359 139.061 118.771 154.209C121.341 159.503 122.745 165.289 122.888 171.175C122.895 171.551 122.8 171.921 122.615 172.248C122.43 172.575 122.16 172.845 121.835 173.032C121.509 173.218 121.14 173.314 120.765 173.308C120.39 173.303 120.023 173.196 119.704 173L77.7708 147.177Z" fill="#9665FF"/>
<path d="M120.795 173.699C120.337 173.697 119.888 173.568 119.498 173.325L77.4439 147.431L76.3647 143.697C75.6875 141.348 75.8483 138.837 76.8192 136.594C77.7902 134.352 79.5107 132.518 81.6848 131.41C83.6139 130.422 85.7797 129.992 87.9389 130.169C90.0981 130.346 92.1653 131.123 93.9084 132.412C99.2285 134.205 112.174 139.871 119.103 154.037C121.707 159.376 123.125 165.218 123.26 171.16C123.276 171.605 123.17 172.046 122.953 172.435C122.736 172.823 122.416 173.145 122.029 173.363C121.654 173.581 121.229 173.697 120.795 173.699ZM78.095 146.931L119.896 172.675C120.158 172.838 120.459 172.927 120.767 172.933C121.075 172.938 121.379 172.86 121.647 172.707C121.915 172.554 122.136 172.331 122.288 172.063C122.44 171.794 122.517 171.489 122.51 171.18C122.378 165.347 120.989 159.611 118.437 154.367C111.597 140.409 98.8029 134.852 93.6095 133.1L93.5512 133.08L93.503 133.045C91.8717 131.828 89.9331 131.094 87.9067 130.924C85.8804 130.754 83.8471 131.157 82.0369 132.085C80.0194 133.112 78.4223 134.811 77.5206 136.891C76.6189 138.97 76.469 141.3 77.0968 143.478L78.095 146.931Z" fill="black"/>
<path d="M65.965 182.414L70.3021 185.651C71.5958 186.613 72.9907 187.43 74.462 188.088C76.2268 188.868 78.0403 189.532 79.891 190.076C83.8963 191.254 93.7765 194.153 104.764 190.101C113.19 186.994 118.426 181.216 121.157 177.443C121.346 177.192 121.464 176.894 121.5 176.581C121.536 176.269 121.488 175.952 121.362 175.664C121.235 175.376 121.035 175.126 120.781 174.941C120.527 174.756 120.229 174.642 119.916 174.61L72.2123 169.19C70.5261 168.999 68.8217 169.328 67.3275 170.134C65.8333 170.941 64.6207 172.185 63.8521 173.702C63.1228 175.17 62.9349 176.85 63.3215 178.444C63.7081 180.038 64.6444 181.445 65.965 182.414Z" fill="#9665FF"/>
<path d="M92.8878 192.568C87.061 192.568 82.3666 191.187 79.7902 190.431C77.9233 189.883 76.0944 189.213 74.3155 188.425C72.8177 187.757 71.398 186.925 70.0822 185.945L65.7425 182.718C64.3461 181.698 63.3564 180.214 62.9495 178.531C62.5427 176.849 62.7451 175.076 63.5207 173.528C64.3288 171.947 65.5973 170.649 67.1582 169.807C68.7191 168.964 70.4987 168.617 72.2609 168.811L119.957 174.226C120.335 174.267 120.695 174.407 121.002 174.631C121.309 174.855 121.551 175.156 121.705 175.504C121.859 175.852 121.919 176.235 121.879 176.613C121.839 176.992 121.701 177.353 121.477 177.661C118.467 181.819 113.15 187.412 104.906 190.453C101.057 191.866 96.9873 192.582 92.8878 192.568ZM66.1909 182.096L70.5357 185.323C71.8049 186.27 73.1755 187.073 74.622 187.717C76.3701 188.499 78.1676 189.166 80.003 189.712C84.1223 190.923 93.7694 193.754 104.64 189.745C112.701 186.772 117.908 181.294 120.854 177.222C121 177.022 121.091 176.787 121.118 176.54C121.144 176.294 121.104 176.044 121.003 175.818C120.906 175.592 120.75 175.396 120.552 175.251C120.354 175.106 120.12 175.016 119.876 174.99L72.1697 169.568C70.5604 169.391 68.9356 169.71 67.5111 170.481C66.0867 171.251 64.9299 172.438 64.1946 173.884C63.5058 175.268 63.3284 176.853 63.6938 178.356C64.0592 179.859 64.9438 181.184 66.1909 182.096Z" fill="black"/>
<path d="M62.4841 156.71C63.0257 158.984 64.0513 161.114 65.4907 162.955C66.9302 164.795 68.7494 166.302 70.824 167.372L85.3707 174.874C86.3461 175.257 87.7724 175.79 89.5179 176.351C93.2342 177.562 97.0487 178.445 100.918 178.992C107.827 179.814 115.45 177.631 119.777 176.095C120.194 175.947 120.578 175.717 120.907 175.42C121.236 175.123 121.503 174.763 121.692 174.362C121.882 173.961 121.991 173.527 122.014 173.084C122.036 172.64 121.97 172.197 121.821 171.779C119.232 164.598 115.417 160.462 113.266 158.462C109.294 154.768 104.472 152.303 100.619 150.338C98.1798 149.09 95.6777 147.969 93.1229 146.979L80.7346 143.55C76.6368 142.422 72.261 142.955 68.5515 145.032L67.3076 145.728C65.4216 146.784 63.9305 148.427 63.0601 150.409C62.1897 152.391 61.9875 154.603 62.4841 156.71Z" fill="#9665FF"/>
<path d="M104.121 179.558C103.04 179.561 101.959 179.5 100.885 179.375C98.5294 179.093 94.1061 178.23 89.4016 176.72C87.9981 176.268 86.5946 175.768 85.2316 175.234L85.1962 175.219L70.6494 167.715C68.5253 166.62 66.6628 165.078 65.1899 163.193C63.7171 161.309 62.6687 159.128 62.117 156.799C61.6008 154.608 61.8101 152.309 62.7132 150.248C63.6163 148.187 65.1641 146.476 67.123 145.375L68.3669 144.679C72.1655 142.544 76.6536 142.003 80.8489 143.176L93.2625 146.616C95.8295 147.612 98.3442 148.738 100.797 149.99C104.683 151.978 109.517 154.448 113.527 158.177C117.327 161.701 120.23 166.232 122.181 171.645C122.348 172.11 122.421 172.604 122.396 173.098C122.372 173.592 122.25 174.076 122.038 174.523C121.826 174.969 121.528 175.37 121.162 175.7C120.795 176.031 120.367 176.286 119.901 176.451C115.726 177.948 109.864 179.558 104.121 179.558ZM85.5255 174.531C86.8682 175.059 88.2514 175.547 89.6347 175.994C94.286 177.489 98.651 178.342 100.977 178.619C107.533 179.398 114.756 177.484 119.663 175.74C120.034 175.609 120.375 175.405 120.667 175.142C120.959 174.878 121.196 174.559 121.364 174.204C121.533 173.848 121.63 173.462 121.649 173.069C121.668 172.675 121.61 172.282 121.477 171.911C119.567 166.611 116.722 162.183 113.02 158.741C109.089 155.085 104.306 152.648 100.462 150.676C98.0387 149.438 95.5536 148.324 93.0168 147.34L80.6462 143.915C76.6439 142.799 72.3635 143.314 68.7393 145.349L67.4979 146.045C65.683 147.066 64.2486 148.65 63.4113 150.559C62.5741 152.468 62.3794 154.599 62.8567 156.629C63.385 158.849 64.3861 160.929 65.7915 162.726C67.1969 164.522 68.9733 165.993 70.9991 167.037L85.5255 174.531Z" fill="black"/>
<path d="M155.118 136.878C154.741 136.871 154.367 136.948 154.023 137.102C153.68 137.257 153.374 137.485 153.128 137.771C152.882 138.058 152.703 138.395 152.602 138.758C152.501 139.122 152.481 139.504 152.544 139.876C153.557 145.888 156.136 159.15 159.724 162.501C164.403 166.872 171.922 192.043 192.835 186.735C207.194 183.089 202.781 168.071 198.601 159.008C196.286 153.97 192.61 149.683 187.989 146.632C183.398 143.628 178.405 141.295 173.158 139.701C167.305 137.925 161.233 136.975 155.118 136.878Z" fill="#9665FF"/>
<path d="M187.266 187.844C174.546 187.844 167.574 175.887 163.199 168.373C161.752 165.89 160.503 163.745 159.47 162.787C155.9 159.454 153.367 147.048 152.173 139.94C152.101 139.512 152.123 139.073 152.239 138.655C152.355 138.237 152.561 137.85 152.843 137.521C153.126 137.193 153.477 136.93 153.872 136.753C154.268 136.576 154.697 136.489 155.13 136.497C161.283 136.593 167.393 137.55 173.282 139.34C178.559 140.945 183.582 143.293 188.201 146.314C192.883 149.402 196.607 153.744 198.95 158.847C201.906 165.255 204.799 174.219 201.797 180.528C200.244 183.792 197.263 186.006 192.931 187.103C191.081 187.585 189.178 187.834 187.266 187.844ZM155.069 137.256C154.751 137.257 154.438 137.327 154.15 137.461C153.862 137.596 153.607 137.792 153.402 138.035C153.198 138.278 153.048 138.563 152.965 138.87C152.881 139.177 152.865 139.499 152.918 139.813C153.866 145.451 156.45 158.924 159.981 162.221C161.096 163.262 162.312 165.349 163.852 167.989C168.734 176.367 176.907 190.385 192.733 186.366C196.829 185.326 199.644 183.252 201.093 180.2C203.969 174.158 201.129 165.428 198.243 159.167C195.96 154.193 192.329 149.961 187.765 146.951C183.207 143.97 178.249 141.652 173.041 140.066C167.219 138.298 161.18 137.353 155.097 137.256H155.069Z" fill="black"/>
<path d="M239.186 214.845C239.913 214.464 232.313 140.59 211.032 112.157C189.752 83.7236 184.685 79.1541 184.685 79.1541C184.685 79.1541 184.178 100.733 193.298 115.965C202.419 131.196 213.059 156.583 216.099 162.168C219.139 167.753 230.286 218.78 230.286 218.78L239.186 214.845Z" fill="#8BB174"/>
<path d="M230.015 219.316L229.916 218.861C229.802 218.354 218.744 167.834 215.764 162.351C214.781 160.546 213.013 156.69 210.774 151.808C206.145 141.722 199.153 126.482 192.971 116.16C183.899 101.009 184.305 79.3623 184.305 79.144L184.325 78.3164L184.938 78.8724C185.146 79.0577 190.276 83.7897 211.336 111.928C222.364 126.652 229.508 153.308 233.556 173.074C238.056 195.031 239.847 213.693 239.583 214.883C239.572 214.948 239.546 215.008 239.509 215.061C239.471 215.115 239.422 215.159 239.365 215.191H239.34L230.015 219.316ZM185.065 80.0757C185.1 84.3381 185.726 102.571 193.628 115.769C199.827 126.124 206.832 141.389 211.465 151.488C213.7 156.357 215.465 160.203 216.436 161.985C219.347 167.337 229.376 212.847 230.559 218.245L238.856 214.591C238.978 212.53 237.065 193.983 232.806 173.211C228.771 153.537 221.66 127.008 210.728 112.4C193.643 89.5576 186.975 82.0863 185.065 80.0757Z" fill="black"/>
</svg>
